solid OpenSCAD_Model
  facet normal -1 0 0
    outer loop
      vertex 0 -42.6258 8.23933
      vertex 0 -14 16
      vertex 0 -52 0
    endloop
  endfacet
  facet normal -1 0 0
    outer loop
      vertex 0 -21.6623 8.79556
      vertex 0 -14 16
      vertex 0 -14 4
    endloop
  endfacet
  facet normal -1 0 0
    outer loop
      vertex 0 -52 0
      vertex 0 -14 4
      vertex 0 -18 0
    endloop
  endfacet
  facet normal -1 0 0
    outer loop
      vertex 0 -24.058 11.4562
      vertex 0 -52 0
      vertex 0 -23.7321 11.6444
    endloop
  endfacet
  facet normal -1 0 0
    outer loop
      vertex 0 -52 0
      vertex 0 -24.7901 9.81185
      vertex 0 -24.7119 9.44377
    endloop
  endfacet
  facet normal -1 0 0
    outer loop
      vertex 0 -52 0
      vertex 0 -24.7119 9.44377
      vertex 0 -24.5588 9.1
    endloop
  endfacet
  facet normal -1 0 0
    outer loop
      vertex 0 -52 0
      vertex 0 -24.5588 9.1
      vertex 0 -24.3377 8.79556
    endloop
  endfacet
  facet normal -1 0 0
    outer loop
      vertex 0 -52 0
      vertex 0 -24.3377 8.79556
      vertex 0 -24.058 8.54377
    endloop
  endfacet
  facet normal -1 0 0
    outer loop
      vertex 0 -52 0
      vertex 0 -24.058 8.54377
      vertex 0 -23.7321 8.35562
    endloop
  endfacet
  facet normal -1 0 0
    outer loop
      vertex 0 -52 0
      vertex 0 -23.7321 8.35562
      vertex 0 -14 4
    endloop
  endfacet
  facet normal -1 0 0
    outer loop
      vertex 0 -23 8.2
      vertex 0 -14 4
      vertex 0 -23.3742 8.23933
    endloop
  endfacet
  facet normal -1 0 0
    outer loop
      vertex 0 -22.6258 8.23933
      vertex 0 -14 4
      vertex 0 -23 8.2
    endloop
  endfacet
  facet normal -1 0 0
    outer loop
      vertex 0 -22.2679 8.35562
      vertex 0 -14 4
      vertex 0 -22.6258 8.23933
    endloop
  endfacet
  facet normal -1 0 0
    outer loop
      vertex 0 -21.942 8.54377
      vertex 0 -14 4
      vertex 0 -22.2679 8.35562
    endloop
  endfacet
  facet normal -1 0 0
    outer loop
      vertex 0 -21.942 11.4562
      vertex 0 -14 16
      vertex 0 -21.6623 11.2044
    endloop
  endfacet
  facet normal -1 0 0
    outer loop
      vertex 0 -21.4412 9.1
      vertex 0 -14 16
      vertex 0 -21.6623 8.79556
    endloop
  endfacet
  facet normal -1 0 0
    outer loop
      vertex 0 -21.942 8.54377
      vertex 0 -21.6623 8.79556
      vertex 0 -14 4
    endloop
  endfacet
  facet normal -1 0 0
    outer loop
      vertex 0 -21.2881 9.44377
      vertex 0 -14 16
      vertex 0 -21.4412 9.1
    endloop
  endfacet
  facet normal -1 0 0
    outer loop
      vertex 0 -21.2099 9.81185
      vertex 0 -14 16
      vertex 0 -21.2881 9.44377
    endloop
  endfacet
  facet normal -1 0 0
    outer loop
      vertex 0 -21.2099 10.1882
      vertex 0 -14 16
      vertex 0 -21.2099 9.81185
    endloop
  endfacet
  facet normal -1 0 0
    outer loop
      vertex 0 -21.2881 10.5562
      vertex 0 -14 16
      vertex 0 -21.2099 10.1882
    endloop
  endfacet
  facet normal -1 0 0
    outer loop
      vertex 0 -21.4412 10.9
      vertex 0 -14 16
      vertex 0 -21.2881 10.5562
    endloop
  endfacet
  facet normal -1 0 0
    outer loop
      vertex 0 -21.6623 11.2044
      vertex 0 -14 16
      vertex 0 -21.4412 10.9
    endloop
  endfacet
  facet normal -1 0 0
    outer loop
      vertex 0 -22.2679 11.6444
      vertex 0 -14 16
      vertex 0 -21.942 11.4562
    endloop
  endfacet
  facet normal -1 0 0
    outer loop
      vertex 0 -22.6258 11.7607
      vertex 0 -14 16
      vertex 0 -22.2679 11.6444
    endloop
  endfacet
  facet normal -1 0 0
    outer loop
      vertex 0 -23 11.8
      vertex 0 -14 16
      vertex 0 -22.6258 11.7607
    endloop
  endfacet
  facet normal -1 0 0
    outer loop
      vertex 0 -23.3742 11.7607
      vertex 0 -14 16
      vertex 0 -23 11.8
    endloop
  endfacet
  facet normal -1 0 0
    outer loop
      vertex 0 -23.7321 11.6444
      vertex 0 -14 16
      vertex 0 -23.3742 11.7607
    endloop
  endfacet
  facet normal -1 0 0
    outer loop
      vertex 0 -52 0
      vertex 0 -14 16
      vertex 0 -23.7321 11.6444
    endloop
  endfacet
  facet normal -1 0 0
    outer loop
      vertex 0 -24.3377 11.2044
      vertex 0 -52 0
      vertex 0 -24.058 11.4562
    endloop
  endfacet
  facet normal -1 0 0
    outer loop
      vertex 0 -24.5588 10.9
      vertex 0 -52 0
      vertex 0 -24.3377 11.2044
    endloop
  endfacet
  facet normal -1 0 0
    outer loop
      vertex 0 -24.7119 10.5562
      vertex 0 -52 0
      vertex 0 -24.5588 10.9
    endloop
  endfacet
  facet normal -1 0 0
    outer loop
      vertex 0 -24.7901 10.1882
      vertex 0 -52 0
      vertex 0 -24.7119 10.5562
    endloop
  endfacet
  facet normal -1 0 0
    outer loop
      vertex 0 -41.942 8.54377
      vertex 0 -14 16
      vertex 0 -42.2679 8.35562
    endloop
  endfacet
  facet normal -1 0 0
    outer loop
      vertex 0 -52 0
      vertex 0 -24.7901 10.1882
      vertex 0 -24.7901 9.81185
    endloop
  endfacet
  facet normal -1 0 0
    outer loop
      vertex 0 -42.6258 11.7607
      vertex 0 -52 16
      vertex 0 -42.2679 11.6444
    endloop
  endfacet
  facet normal -1 0 0
    outer loop
      vertex 0 -52 16
      vertex 0 -44.7901 9.81185
      vertex 0 -52 0
    endloop
  endfacet
  facet normal -1 0 0
    outer loop
      vertex 0 -44.7901 9.81185
      vertex 0 -44.7119 9.44377
      vertex 0 -52 0
    endloop
  endfacet
  facet normal -1 0 0
    outer loop
      vertex 0 -41.2881 10.5562
      vertex 0 -14 16
      vertex 0 -41.2099 10.1882
    endloop
  endfacet
  facet normal -1 0 0
    outer loop
      vertex 0 -44.7119 9.44377
      vertex 0 -44.5588 9.1
      vertex 0 -52 0
    endloop
  endfacet
  facet normal -1 0 0
    outer loop
      vertex 0 -41.2099 10.1882
      vertex 0 -14 16
      vertex 0 -41.2099 9.81185
    endloop
  endfacet
  facet normal -1 0 0
    outer loop
      vertex 0 -44.5588 9.1
      vertex 0 -44.3377 8.79556
      vertex 0 -52 0
    endloop
  endfacet
  facet normal -1 0 0
    outer loop
      vertex 0 -41.2099 9.81185
      vertex 0 -14 16
      vertex 0 -41.2881 9.44377
    endloop
  endfacet
  facet normal -1 0 0
    outer loop
      vertex 0 -44.3377 8.79556
      vertex 0 -44.058 8.54377
      vertex 0 -52 0
    endloop
  endfacet
  facet normal -1 0 0
    outer loop
      vertex 0 -41.2881 9.44377
      vertex 0 -14 16
      vertex 0 -41.4412 9.1
    endloop
  endfacet
  facet normal -1 0 0
    outer loop
      vertex 0 -44.058 8.54377
      vertex 0 -43.7321 8.35562
      vertex 0 -52 0
    endloop
  endfacet
  facet normal -1 0 0
    outer loop
      vertex 0 -41.4412 9.1
      vertex 0 -14 16
      vertex 0 -41.6623 8.79556
    endloop
  endfacet
  facet normal -1 0 0
    outer loop
      vertex 0 -43.7321 8.35562
      vertex 0 -43.3742 8.23933
      vertex 0 -52 0
    endloop
  endfacet
  facet normal -1 0 0
    outer loop
      vertex 0 -41.6623 8.79556
      vertex 0 -14 16
      vertex 0 -41.942 8.54377
    endloop
  endfacet
  facet normal -1 0 0
    outer loop
      vertex 0 -43.3742 8.23933
      vertex 0 -43 8.2
      vertex 0 -52 0
    endloop
  endfacet
  facet normal -1 0 0
    outer loop
      vertex 0 -42.2679 8.35562
      vertex 0 -14 16
      vertex 0 -42.6258 8.23933
    endloop
  endfacet
  facet normal -1 0 0
    outer loop
      vertex 0 -43 8.2
      vertex 0 -42.6258 8.23933
      vertex 0 -52 0
    endloop
  endfacet
  facet normal -1 0 0
    outer loop
      vertex 0 -41.4412 10.9
      vertex 0 -14 16
      vertex 0 -41.2881 10.5562
    endloop
  endfacet
  facet normal -1 0 0
    outer loop
      vertex 0 -41.6623 11.2044
      vertex 0 -14 16
      vertex 0 -41.4412 10.9
    endloop
  endfacet
  facet normal -1 0 0
    outer loop
      vertex 0 -41.942 11.4562
      vertex 0 -14 16
      vertex 0 -41.6623 11.2044
    endloop
  endfacet
  facet normal -1 0 0
    outer loop
      vertex 0 -42.2679 11.6444
      vertex 0 -14 16
      vertex 0 -41.942 11.4562
    endloop
  endfacet
  facet normal -1 0 0
    outer loop
      vertex 0 -52 16
      vertex 0 -14 16
      vertex 0 -42.2679 11.6444
    endloop
  endfacet
  facet normal -1 0 0
    outer loop
      vertex 0 -43 11.8
      vertex 0 -52 16
      vertex 0 -42.6258 11.7607
    endloop
  endfacet
  facet normal -1 0 0
    outer loop
      vertex 0 -43.3742 11.7607
      vertex 0 -52 16
      vertex 0 -43 11.8
    endloop
  endfacet
  facet normal -1 0 0
    outer loop
      vertex 0 -43.7321 11.6444
      vertex 0 -52 16
      vertex 0 -43.3742 11.7607
    endloop
  endfacet
  facet normal -1 0 0
    outer loop
      vertex 0 -52 16
      vertex 0 -43.7321 11.6444
      vertex 0 -44.058 11.4562
    endloop
  endfacet
  facet normal -1 0 0
    outer loop
      vertex 0 -52 16
      vertex 0 -44.058 11.4562
      vertex 0 -44.3377 11.2044
    endloop
  endfacet
  facet normal -1 0 0
    outer loop
      vertex 0 -52 16
      vertex 0 -44.3377 11.2044
      vertex 0 -44.5588 10.9
    endloop
  endfacet
  facet normal -1 0 0
    outer loop
      vertex 0 -52 16
      vertex 0 -44.5588 10.9
      vertex 0 -44.7119 10.5562
    endloop
  endfacet
  facet normal -1 0 0
    outer loop
      vertex 0 -52 16
      vertex 0 -44.7119 10.5562
      vertex 0 -44.7901 10.1882
    endloop
  endfacet
  facet normal -1 0 0
    outer loop
      vertex 0 -52 16
      vertex 0 -44.7901 10.1882
      vertex 0 -44.7901 9.81185
    endloop
  endfacet
  facet normal -1 0 0
    outer loop
      vertex 0 -23.3742 8.23933
      vertex 0 -14 4
      vertex 0 -23.7321 8.35562
    endloop
  endfacet
  facet normal -0.707107 0.5 -0.5
    outer loop
      vertex 0 -14 4
      vertex 6 -8 1.51472
      vertex 0 -18 0
    endloop
  endfacet
  facet normal -0.707107 0.5 -0.5
    outer loop
      vertex 0 -18 0
      vertex 6 -8 1.51472
      vertex 7.07107 -8 0
    endloop
  endfacet
  facet normal -0.707107 0.707107 0
    outer loop
      vertex 0 -14 16
      vertex 4 -10 16
      vertex 0 -14 4
    endloop
  endfacet
  facet normal -0.707107 0.707107 0
    outer loop
      vertex 0 -14 4
      vertex 4 -10 16
      vertex 6 -8 14
    endloop
  endfacet
  facet normal -0.707107 0.707107 0
    outer loop
      vertex 0 -14 4
      vertex 6 -8 14
      vertex 6 -8 1.51472
    endloop
  endfacet
  facet normal -0.707107 -0.707107 0
    outer loop
      vertex 1 -53 0
      vertex 1 -53 16
      vertex 0 -52 0
    endloop
  endfacet
  facet normal -0.707107 -0.707107 0
    outer loop
      vertex 0 -52 0
      vertex 1 -53 16
      vertex 0 -52 16
    endloop
  endfacet
  facet normal 0 0 -1
    outer loop
      vertex 0 -18 0
      vertex 7.07107 -8 0
      vertex 0 -52 0
    endloop
  endfacet
  facet normal 0 0 -1
    outer loop
      vertex 8 -23 0
      vertex 7.07107 -8 0
      vertex 33 -8 0
    endloop
  endfacet
  facet normal 0 0 -1
    outer loop
      vertex 33.0455 -15.5324 0
      vertex 33 -8 0
      vertex 38 -13 0
    endloop
  endfacet
  facet normal 0 0 -1
    outer loop
      vertex 32.0434 -20.2469 0
      vertex 38 -13 0
      vertex 38 -20 0
    endloop
  endfacet
  facet normal 0 0 -1
    outer loop
      vertex 0 -52 0
      vertex 7.07107 -8 0
      vertex 8 -23 0
    endloop
  endfacet
  facet normal 0 0 -1
    outer loop
      vertex 27.25 -13.6493 0
      vertex 8 -23 0
      vertex 33 -8 0
    endloop
  endfacet
  facet normal 0 0 -1
    outer loop
      vertex 33.4 -17.2 0
      vertex 38 -13 0
      vertex 33.0455 -18.8676 0
    endloop
  endfacet
  facet normal 0 0 -1
    outer loop
      vertex 0 -52 0
      vertex 8 -46 0
      vertex 1 -53 0
    endloop
  endfacet
  facet normal 0 0 -1
    outer loop
      vertex 8 -46 0
      vertex 0 -52 0
      vertex 8 -23 0
    endloop
  endfacet
  facet normal 0 0 -1
    outer loop
      vertex 33.0455 -18.8676 0
      vertex 38 -13 0
      vertex 32.0434 -20.2469 0
    endloop
  endfacet
  facet normal 0 0 -1
    outer loop
      vertex 30.567 -21.0993 0
      vertex 32.0434 -20.2469 0
      vertex 38 -20 0
    endloop
  endfacet
  facet normal 0 0 -1
    outer loop
      vertex 32.0434 -14.1531 0
      vertex 33 -8 0
      vertex 33.0455 -15.5324 0
    endloop
  endfacet
  facet normal 0 0 -1
    outer loop
      vertex 28.8714 -13.1225 0
      vertex 33 -8 0
      vertex 30.567 -13.3007 0
    endloop
  endfacet
  facet normal 0 0 -1
    outer loop
      vertex 30.567 -13.3007 0
      vertex 33 -8 0
      vertex 32.0434 -14.1531 0
    endloop
  endfacet
  facet normal 0 0 -1
    outer loop
      vertex 25.983 -14.7901 0
      vertex 8 -23 0
      vertex 27.25 -13.6493 0
    endloop
  endfacet
  facet normal 0 0 -1
    outer loop
      vertex 28.8714 -13.1225 0
      vertex 27.25 -13.6493 0
      vertex 33 -8 0
    endloop
  endfacet
  facet normal 0 0 -1
    outer loop
      vertex 25.2896 -16.3476 0
      vertex 8 -23 0
      vertex 25.983 -14.7901 0
    endloop
  endfacet
  facet normal 0 0 -1
    outer loop
      vertex 25.2896 -18.0524 0
      vertex 8 -23 0
      vertex 25.2896 -16.3476 0
    endloop
  endfacet
  facet normal 0 0 -1
    outer loop
      vertex 8 -23 0
      vertex 25.2896 -18.0524 0
      vertex 25.983 -19.6099 0
    endloop
  endfacet
  facet normal 0 0 -1
    outer loop
      vertex 8 -23 0
      vertex 25.983 -19.6099 0
      vertex 27.25 -20.7507 0
    endloop
  endfacet
  facet normal 0 0 -1
    outer loop
      vertex 8 -23 0
      vertex 27.25 -20.7507 0
      vertex 28.8714 -21.2775 0
    endloop
  endfacet
  facet normal 0 0 -1
    outer loop
      vertex 33.0455 -15.5324 0
      vertex 38 -13 0
      vertex 33.4 -17.2 0
    endloop
  endfacet
  facet normal 0 0 -1
    outer loop
      vertex 30.567 -21.0993 0
      vertex 38 -20 0
      vertex 35 -23 0
    endloop
  endfacet
  facet normal 0 0 -1
    outer loop
      vertex 28.8714 -21.2775 0
      vertex 30.567 -21.0993 0
      vertex 35 -23 0
    endloop
  endfacet
  facet normal 0 0 -1
    outer loop
      vertex 8 -23 0
      vertex 28.8714 -21.2775 0
      vertex 35 -23 0
    endloop
  endfacet
  facet normal 0 0 1
    outer loop
      vertex 0 -52 16
      vertex 1 -53 16
      vertex 4 -50 16
    endloop
  endfacet
  facet normal 0 0 1
    outer loop
      vertex 0 -14 16
      vertex 0 -52 16
      vertex 4 -10 16
    endloop
  endfacet
  facet normal 0 0 1
    outer loop
      vertex 4 -10 16
      vertex 0 -52 16
      vertex 4 -50 16
    endloop
  endfacet
  facet normal -4.61652e-017 0.978148 0.20791
    outer loop
      vertex 4 -24.7901 9.81185
      vertex 4 -24.7119 9.44377
      vertex 0 -24.7901 9.81185
    endloop
  endfacet
  facet normal -4.61652e-017 0.978148 0.20791
    outer loop
      vertex 0 -24.7901 9.81185
      vertex 4 -24.7119 9.44377
      vertex 0 -24.7119 9.44377
    endloop
  endfacet
  facet normal 0 1 0
    outer loop
      vertex 0 -24.7901 10.1882
      vertex 4 -24.7901 10.1882
      vertex 0 -24.7901 9.81185
    endloop
  endfacet
  facet normal 0 1 0
    outer loop
      vertex 0 -24.7901 9.81185
      vertex 4 -24.7901 10.1882
      vertex 4 -24.7901 9.81185
    endloop
  endfacet
  facet normal 4.61652e-017 0.978148 -0.20791
    outer loop
      vertex 0 -24.7119 10.5562
      vertex 4 -24.7119 10.5562
      vertex 0 -24.7901 10.1882
    endloop
  endfacet
  facet normal 4.61652e-017 0.978148 -0.20791
    outer loop
      vertex 0 -24.7901 10.1882
      vertex 4 -24.7119 10.5562
      vertex 4 -24.7901 10.1882
    endloop
  endfacet
  facet normal 9.03138e-017 0.913545 -0.406737
    outer loop
      vertex 0 -24.5588 10.9
      vertex 4 -24.5588 10.9
      vertex 0 -24.7119 10.5562
    endloop
  endfacet
  facet normal 9.03138e-017 0.913545 -0.406737
    outer loop
      vertex 0 -24.7119 10.5562
      vertex 4 -24.5588 10.9
      vertex 4 -24.7119 10.5562
    endloop
  endfacet
  facet normal 1.30515e-016 0.809017 -0.587785
    outer loop
      vertex 0 -24.3377 11.2044
      vertex 4 -24.3377 11.2044
      vertex 0 -24.5588 10.9
    endloop
  endfacet
  facet normal 1.30515e-016 0.809017 -0.587785
    outer loop
      vertex 0 -24.5588 10.9
      vertex 4 -24.3377 11.2044
      vertex 4 -24.5588 10.9
    endloop
  endfacet
  facet normal 1.65011e-016 0.66913 -0.743145
    outer loop
      vertex 0 -24.058 11.4562
      vertex 4 -24.058 11.4562
      vertex 0 -24.3377 11.2044
    endloop
  endfacet
  facet normal 1.65011e-016 0.66913 -0.743145
    outer loop
      vertex 0 -24.3377 11.2044
      vertex 4 -24.058 11.4562
      vertex 4 -24.3377 11.2044
    endloop
  endfacet
  facet normal 1.92296e-016 0.5 -0.866025
    outer loop
      vertex 0 -23.7321 11.6444
      vertex 4 -23.7321 11.6444
      vertex 0 -24.058 11.4562
    endloop
  endfacet
  facet normal 1.92296e-016 0.5 -0.866025
    outer loop
      vertex 0 -24.058 11.4562
      vertex 4 -23.7321 11.6444
      vertex 4 -24.058 11.4562
    endloop
  endfacet
  facet normal 2.11177e-016 0.309017 -0.951056
    outer loop
      vertex 0 -23.3742 11.7607
      vertex 4 -23.3742 11.7607
      vertex 0 -23.7321 11.6444
    endloop
  endfacet
  facet normal 2.11177e-016 0.309017 -0.951056
    outer loop
      vertex 0 -23.7321 11.6444
      vertex 4 -23.3742 11.7607
      vertex 4 -23.7321 11.6444
    endloop
  endfacet
  facet normal 2.20828e-016 0.104528 -0.994522
    outer loop
      vertex 0 -23 11.8
      vertex 4 -23 11.8
      vertex 0 -23.3742 11.7607
    endloop
  endfacet
  facet normal 2.20828e-016 0.104528 -0.994522
    outer loop
      vertex 0 -23.3742 11.7607
      vertex 4 -23 11.8
      vertex 4 -23.3742 11.7607
    endloop
  endfacet
  facet normal 2.20828e-016 -0.104528 -0.994522
    outer loop
      vertex 0 -22.6258 11.7607
      vertex 4 -22.6258 11.7607
      vertex 0 -23 11.8
    endloop
  endfacet
  facet normal 2.20828e-016 -0.104528 -0.994522
    outer loop
      vertex 0 -23 11.8
      vertex 4 -22.6258 11.7607
      vertex 4 -23 11.8
    endloop
  endfacet
  facet normal 2.11177e-016 -0.309017 -0.951056
    outer loop
      vertex 0 -22.2679 11.6444
      vertex 4 -22.2679 11.6444
      vertex 0 -22.6258 11.7607
    endloop
  endfacet
  facet normal 2.11177e-016 -0.309017 -0.951056
    outer loop
      vertex 0 -22.6258 11.7607
      vertex 4 -22.2679 11.6444
      vertex 4 -22.6258 11.7607
    endloop
  endfacet
  facet normal 1.92296e-016 -0.5 -0.866025
    outer loop
      vertex 0 -21.942 11.4562
      vertex 4 -21.942 11.4562
      vertex 0 -22.2679 11.6444
    endloop
  endfacet
  facet normal 1.92296e-016 -0.5 -0.866025
    outer loop
      vertex 0 -22.2679 11.6444
      vertex 4 -21.942 11.4562
      vertex 4 -22.2679 11.6444
    endloop
  endfacet
  facet normal 1.65011e-016 -0.66913 -0.743145
    outer loop
      vertex 0 -21.6623 11.2044
      vertex 4 -21.6623 11.2044
      vertex 0 -21.942 11.4562
    endloop
  endfacet
  facet normal 1.65011e-016 -0.66913 -0.743145
    outer loop
      vertex 0 -21.942 11.4562
      vertex 4 -21.6623 11.2044
      vertex 4 -21.942 11.4562
    endloop
  endfacet
  facet normal 1.30515e-016 -0.809017 -0.587785
    outer loop
      vertex 0 -21.6623 11.2044
      vertex 0 -21.4412 10.9
      vertex 4 -21.4412 10.9
    endloop
  endfacet
  facet normal 1.30515e-016 -0.809017 -0.587785
    outer loop
      vertex 4 -21.6623 11.2044
      vertex 0 -21.6623 11.2044
      vertex 4 -21.4412 10.9
    endloop
  endfacet
  facet normal 9.03138e-017 -0.913545 -0.406737
    outer loop
      vertex 0 -21.4412 10.9
      vertex 0 -21.2881 10.5562
      vertex 4 -21.2881 10.5562
    endloop
  endfacet
  facet normal 9.03138e-017 -0.913545 -0.406737
    outer loop
      vertex 4 -21.4412 10.9
      vertex 0 -21.4412 10.9
      vertex 4 -21.2881 10.5562
    endloop
  endfacet
  facet normal 4.61652e-017 -0.978148 -0.20791
    outer loop
      vertex 0 -21.2881 10.5562
      vertex 0 -21.2099 10.1882
      vertex 4 -21.2099 10.1882
    endloop
  endfacet
  facet normal 4.61652e-017 -0.978148 -0.20791
    outer loop
      vertex 4 -21.2881 10.5562
      vertex 0 -21.2881 10.5562
      vertex 4 -21.2099 10.1882
    endloop
  endfacet
  facet normal 0 -1 0
    outer loop
      vertex 0 -21.2099 9.81185
      vertex 4 -21.2099 9.81185
      vertex 4 -21.2099 10.1882
    endloop
  endfacet
  facet normal 0 -1 0
    outer loop
      vertex 0 -21.2099 10.1882
      vertex 0 -21.2099 9.81185
      vertex 4 -21.2099 10.1882
    endloop
  endfacet
  facet normal -4.61652e-017 -0.978148 0.20791
    outer loop
      vertex 0 -21.2881 9.44377
      vertex 4 -21.2881 9.44377
      vertex 4 -21.2099 9.81185
    endloop
  endfacet
  facet normal -4.61652e-017 -0.978148 0.20791
    outer loop
      vertex 0 -21.2099 9.81185
      vertex 0 -21.2881 9.44377
      vertex 4 -21.2099 9.81185
    endloop
  endfacet
  facet normal -9.03138e-017 -0.913545 0.406737
    outer loop
      vertex 0 -21.4412 9.1
      vertex 4 -21.4412 9.1
      vertex 4 -21.2881 9.44377
    endloop
  endfacet
  facet normal -9.03138e-017 -0.913545 0.406737
    outer loop
      vertex 0 -21.2881 9.44377
      vertex 0 -21.4412 9.1
      vertex 4 -21.2881 9.44377
    endloop
  endfacet
  facet normal -1.30515e-016 -0.809017 0.587785
    outer loop
      vertex 0 -21.6623 8.79556
      vertex 4 -21.6623 8.79556
      vertex 4 -21.4412 9.1
    endloop
  endfacet
  facet normal -1.30515e-016 -0.809017 0.587785
    outer loop
      vertex 0 -21.4412 9.1
      vertex 0 -21.6623 8.79556
      vertex 4 -21.4412 9.1
    endloop
  endfacet
  facet normal -1.65011e-016 -0.66913 0.743145
    outer loop
      vertex 0 -21.942 8.54377
      vertex 4 -21.942 8.54377
      vertex 4 -21.6623 8.79556
    endloop
  endfacet
  facet normal -1.65011e-016 -0.66913 0.743145
    outer loop
      vertex 0 -21.6623 8.79556
      vertex 0 -21.942 8.54377
      vertex 4 -21.6623 8.79556
    endloop
  endfacet
  facet normal -1.92296e-016 -0.5 0.866025
    outer loop
      vertex 0 -22.2679 8.35562
      vertex 4 -22.2679 8.35562
      vertex 4 -21.942 8.54377
    endloop
  endfacet
  facet normal -1.92296e-016 -0.5 0.866025
    outer loop
      vertex 0 -21.942 8.54377
      vertex 0 -22.2679 8.35562
      vertex 4 -21.942 8.54377
    endloop
  endfacet
  facet normal -2.11177e-016 -0.309017 0.951056
    outer loop
      vertex 0 -22.6258 8.23933
      vertex 4 -22.6258 8.23933
      vertex 4 -22.2679 8.35562
    endloop
  endfacet
  facet normal -2.11177e-016 -0.309017 0.951056
    outer loop
      vertex 0 -22.2679 8.35562
      vertex 0 -22.6258 8.23933
      vertex 4 -22.2679 8.35562
    endloop
  endfacet
  facet normal -2.20828e-016 -0.104528 0.994522
    outer loop
      vertex 0 -23 8.2
      vertex 4 -23 8.2
      vertex 4 -22.6258 8.23933
    endloop
  endfacet
  facet normal -2.20828e-016 -0.104528 0.994522
    outer loop
      vertex 0 -22.6258 8.23933
      vertex 0 -23 8.2
      vertex 4 -22.6258 8.23933
    endloop
  endfacet
  facet normal -2.20828e-016 0.104528 0.994522
    outer loop
      vertex 0 -23.3742 8.23933
      vertex 4 -23.3742 8.23933
      vertex 4 -23 8.2
    endloop
  endfacet
  facet normal -2.20828e-016 0.104528 0.994522
    outer loop
      vertex 0 -23 8.2
      vertex 0 -23.3742 8.23933
      vertex 4 -23 8.2
    endloop
  endfacet
  facet normal -2.11177e-016 0.309017 0.951056
    outer loop
      vertex 0 -23.7321 8.35562
      vertex 4 -23.7321 8.35562
      vertex 4 -23.3742 8.23933
    endloop
  endfacet
  facet normal -2.11177e-016 0.309017 0.951056
    outer loop
      vertex 0 -23.3742 8.23933
      vertex 0 -23.7321 8.35562
      vertex 4 -23.3742 8.23933
    endloop
  endfacet
  facet normal -1.92296e-016 0.5 0.866025
    outer loop
      vertex 0 -24.058 8.54377
      vertex 4 -24.058 8.54377
      vertex 4 -23.7321 8.35562
    endloop
  endfacet
  facet normal -1.92296e-016 0.5 0.866025
    outer loop
      vertex 0 -23.7321 8.35562
      vertex 0 -24.058 8.54377
      vertex 4 -23.7321 8.35562
    endloop
  endfacet
  facet normal -1.65011e-016 0.66913 0.743145
    outer loop
      vertex 0 -24.3377 8.79556
      vertex 4 -24.3377 8.79556
      vertex 4 -24.058 8.54377
    endloop
  endfacet
  facet normal -1.65011e-016 0.66913 0.743145
    outer loop
      vertex 0 -24.058 8.54377
      vertex 0 -24.3377 8.79556
      vertex 4 -24.058 8.54377
    endloop
  endfacet
  facet normal -1.30515e-016 0.809017 0.587785
    outer loop
      vertex 4 -24.5588 9.1
      vertex 4 -24.3377 8.79556
      vertex 0 -24.5588 9.1
    endloop
  endfacet
  facet normal -1.30515e-016 0.809017 0.587785
    outer loop
      vertex 0 -24.5588 9.1
      vertex 4 -24.3377 8.79556
      vertex 0 -24.3377 8.79556
    endloop
  endfacet
  facet normal -9.03138e-017 0.913545 0.406737
    outer loop
      vertex 4 -24.7119 9.44377
      vertex 4 -24.5588 9.1
      vertex 0 -24.7119 9.44377
    endloop
  endfacet
  facet normal -9.03138e-017 0.913545 0.406737
    outer loop
      vertex 0 -24.7119 9.44377
      vertex 4 -24.5588 9.1
      vertex 0 -24.5588 9.1
    endloop
  endfacet
  facet normal -4.61652e-017 0.978148 0.20791
    outer loop
      vertex 4 -44.7901 9.81185
      vertex 4 -44.7119 9.44377
      vertex 0 -44.7901 9.81185
    endloop
  endfacet
  facet normal -4.61652e-017 0.978148 0.20791
    outer loop
      vertex 0 -44.7901 9.81185
      vertex 4 -44.7119 9.44377
      vertex 0 -44.7119 9.44377
    endloop
  endfacet
  facet normal 0 1 0
    outer loop
      vertex 0 -44.7901 10.1882
      vertex 4 -44.7901 10.1882
      vertex 0 -44.7901 9.81185
    endloop
  endfacet
  facet normal 0 1 0
    outer loop
      vertex 0 -44.7901 9.81185
      vertex 4 -44.7901 10.1882
      vertex 4 -44.7901 9.81185
    endloop
  endfacet
  facet normal 4.61652e-017 0.978148 -0.20791
    outer loop
      vertex 0 -44.7119 10.5562
      vertex 4 -44.7119 10.5562
      vertex 0 -44.7901 10.1882
    endloop
  endfacet
  facet normal 4.61652e-017 0.978148 -0.20791
    outer loop
      vertex 0 -44.7901 10.1882
      vertex 4 -44.7119 10.5562
      vertex 4 -44.7901 10.1882
    endloop
  endfacet
  facet normal 9.03138e-017 0.913545 -0.406737
    outer loop
      vertex 0 -44.5588 10.9
      vertex 4 -44.5588 10.9
      vertex 0 -44.7119 10.5562
    endloop
  endfacet
  facet normal 9.03138e-017 0.913545 -0.406737
    outer loop
      vertex 0 -44.7119 10.5562
      vertex 4 -44.5588 10.9
      vertex 4 -44.7119 10.5562
    endloop
  endfacet
  facet normal 1.30515e-016 0.809017 -0.587785
    outer loop
      vertex 0 -44.3377 11.2044
      vertex 4 -44.3377 11.2044
      vertex 0 -44.5588 10.9
    endloop
  endfacet
  facet normal 1.30515e-016 0.809017 -0.587785
    outer loop
      vertex 0 -44.5588 10.9
      vertex 4 -44.3377 11.2044
      vertex 4 -44.5588 10.9
    endloop
  endfacet
  facet normal 1.65011e-016 0.66913 -0.743145
    outer loop
      vertex 0 -44.058 11.4562
      vertex 4 -44.058 11.4562
      vertex 0 -44.3377 11.2044
    endloop
  endfacet
  facet normal 1.65011e-016 0.66913 -0.743145
    outer loop
      vertex 0 -44.3377 11.2044
      vertex 4 -44.058 11.4562
      vertex 4 -44.3377 11.2044
    endloop
  endfacet
  facet normal 1.92296e-016 0.5 -0.866025
    outer loop
      vertex 0 -43.7321 11.6444
      vertex 4 -43.7321 11.6444
      vertex 0 -44.058 11.4562
    endloop
  endfacet
  facet normal 1.92296e-016 0.5 -0.866025
    outer loop
      vertex 0 -44.058 11.4562
      vertex 4 -43.7321 11.6444
      vertex 4 -44.058 11.4562
    endloop
  endfacet
  facet normal 2.11177e-016 0.309017 -0.951056
    outer loop
      vertex 0 -43.3742 11.7607
      vertex 4 -43.3742 11.7607
      vertex 0 -43.7321 11.6444
    endloop
  endfacet
  facet normal 2.11177e-016 0.309017 -0.951056
    outer loop
      vertex 0 -43.7321 11.6444
      vertex 4 -43.3742 11.7607
      vertex 4 -43.7321 11.6444
    endloop
  endfacet
  facet normal 2.20828e-016 0.104528 -0.994522
    outer loop
      vertex 0 -43 11.8
      vertex 4 -43 11.8
      vertex 0 -43.3742 11.7607
    endloop
  endfacet
  facet normal 2.20828e-016 0.104528 -0.994522
    outer loop
      vertex 0 -43.3742 11.7607
      vertex 4 -43 11.8
      vertex 4 -43.3742 11.7607
    endloop
  endfacet
  facet normal 2.20828e-016 -0.104528 -0.994522
    outer loop
      vertex 0 -42.6258 11.7607
      vertex 4 -42.6258 11.7607
      vertex 0 -43 11.8
    endloop
  endfacet
  facet normal 2.20828e-016 -0.104528 -0.994522
    outer loop
      vertex 0 -43 11.8
      vertex 4 -42.6258 11.7607
      vertex 4 -43 11.8
    endloop
  endfacet
  facet normal 2.11177e-016 -0.309017 -0.951056
    outer loop
      vertex 0 -42.2679 11.6444
      vertex 4 -42.2679 11.6444
      vertex 0 -42.6258 11.7607
    endloop
  endfacet
  facet normal 2.11177e-016 -0.309017 -0.951056
    outer loop
      vertex 0 -42.6258 11.7607
      vertex 4 -42.2679 11.6444
      vertex 4 -42.6258 11.7607
    endloop
  endfacet
  facet normal 1.92296e-016 -0.5 -0.866025
    outer loop
      vertex 0 -41.942 11.4562
      vertex 4 -41.942 11.4562
      vertex 0 -42.2679 11.6444
    endloop
  endfacet
  facet normal 1.92296e-016 -0.5 -0.866025
    outer loop
      vertex 0 -42.2679 11.6444
      vertex 4 -41.942 11.4562
      vertex 4 -42.2679 11.6444
    endloop
  endfacet
  facet normal 1.65011e-016 -0.66913 -0.743145
    outer loop
      vertex 0 -41.6623 11.2044
      vertex 4 -41.6623 11.2044
      vertex 0 -41.942 11.4562
    endloop
  endfacet
  facet normal 1.65011e-016 -0.66913 -0.743145
    outer loop
      vertex 0 -41.942 11.4562
      vertex 4 -41.6623 11.2044
      vertex 4 -41.942 11.4562
    endloop
  endfacet
  facet normal 1.30515e-016 -0.809017 -0.587785
    outer loop
      vertex 0 -41.6623 11.2044
      vertex 0 -41.4412 10.9
      vertex 4 -41.4412 10.9
    endloop
  endfacet
  facet normal 1.30515e-016 -0.809017 -0.587785
    outer loop
      vertex 4 -41.6623 11.2044
      vertex 0 -41.6623 11.2044
      vertex 4 -41.4412 10.9
    endloop
  endfacet
  facet normal 9.03138e-017 -0.913545 -0.406737
    outer loop
      vertex 0 -41.4412 10.9
      vertex 0 -41.2881 10.5562
      vertex 4 -41.2881 10.5562
    endloop
  endfacet
  facet normal 9.03138e-017 -0.913545 -0.406737
    outer loop
      vertex 4 -41.4412 10.9
      vertex 0 -41.4412 10.9
      vertex 4 -41.2881 10.5562
    endloop
  endfacet
  facet normal 4.61652e-017 -0.978148 -0.20791
    outer loop
      vertex 0 -41.2881 10.5562
      vertex 0 -41.2099 10.1882
      vertex 4 -41.2099 10.1882
    endloop
  endfacet
  facet normal 4.61652e-017 -0.978148 -0.20791
    outer loop
      vertex 4 -41.2881 10.5562
      vertex 0 -41.2881 10.5562
      vertex 4 -41.2099 10.1882
    endloop
  endfacet
  facet normal 0 -1 0
    outer loop
      vertex 0 -41.2099 9.81185
      vertex 4 -41.2099 9.81185
      vertex 4 -41.2099 10.1882
    endloop
  endfacet
  facet normal 0 -1 0
    outer loop
      vertex 0 -41.2099 10.1882
      vertex 0 -41.2099 9.81185
      vertex 4 -41.2099 10.1882
    endloop
  endfacet
  facet normal -4.61652e-017 -0.978148 0.20791
    outer loop
      vertex 0 -41.2881 9.44377
      vertex 4 -41.2881 9.44377
      vertex 4 -41.2099 9.81185
    endloop
  endfacet
  facet normal -4.61652e-017 -0.978148 0.20791
    outer loop
      vertex 0 -41.2099 9.81185
      vertex 0 -41.2881 9.44377
      vertex 4 -41.2099 9.81185
    endloop
  endfacet
  facet normal -9.03138e-017 -0.913545 0.406737
    outer loop
      vertex 0 -41.4412 9.1
      vertex 4 -41.4412 9.1
      vertex 4 -41.2881 9.44377
    endloop
  endfacet
  facet normal -9.03138e-017 -0.913545 0.406737
    outer loop
      vertex 0 -41.2881 9.44377
      vertex 0 -41.4412 9.1
      vertex 4 -41.2881 9.44377
    endloop
  endfacet
  facet normal -1.30515e-016 -0.809017 0.587785
    outer loop
      vertex 0 -41.6623 8.79556
      vertex 4 -41.6623 8.79556
      vertex 4 -41.4412 9.1
    endloop
  endfacet
  facet normal -1.30515e-016 -0.809017 0.587785
    outer loop
      vertex 0 -41.4412 9.1
      vertex 0 -41.6623 8.79556
      vertex 4 -41.4412 9.1
    endloop
  endfacet
  facet normal -1.65011e-016 -0.66913 0.743145
    outer loop
      vertex 0 -41.942 8.54377
      vertex 4 -41.942 8.54377
      vertex 4 -41.6623 8.79556
    endloop
  endfacet
  facet normal -1.65011e-016 -0.66913 0.743145
    outer loop
      vertex 0 -41.6623 8.79556
      vertex 0 -41.942 8.54377
      vertex 4 -41.6623 8.79556
    endloop
  endfacet
  facet normal -1.92296e-016 -0.5 0.866025
    outer loop
      vertex 0 -42.2679 8.35562
      vertex 4 -42.2679 8.35562
      vertex 4 -41.942 8.54377
    endloop
  endfacet
  facet normal -1.92296e-016 -0.5 0.866025
    outer loop
      vertex 0 -41.942 8.54377
      vertex 0 -42.2679 8.35562
      vertex 4 -41.942 8.54377
    endloop
  endfacet
  facet normal -2.11177e-016 -0.309017 0.951056
    outer loop
      vertex 0 -42.6258 8.23933
      vertex 4 -42.6258 8.23933
      vertex 4 -42.2679 8.35562
    endloop
  endfacet
  facet normal -2.11177e-016 -0.309017 0.951056
    outer loop
      vertex 0 -42.2679 8.35562
      vertex 0 -42.6258 8.23933
      vertex 4 -42.2679 8.35562
    endloop
  endfacet
  facet normal -2.20828e-016 -0.104528 0.994522
    outer loop
      vertex 0 -43 8.2
      vertex 4 -43 8.2
      vertex 4 -42.6258 8.23933
    endloop
  endfacet
  facet normal -2.20828e-016 -0.104528 0.994522
    outer loop
      vertex 0 -42.6258 8.23933
      vertex 0 -43 8.2
      vertex 4 -42.6258 8.23933
    endloop
  endfacet
  facet normal -2.20828e-016 0.104528 0.994522
    outer loop
      vertex 0 -43.3742 8.23933
      vertex 4 -43.3742 8.23933
      vertex 4 -43 8.2
    endloop
  endfacet
  facet normal -2.20828e-016 0.104528 0.994522
    outer loop
      vertex 0 -43 8.2
      vertex 0 -43.3742 8.23933
      vertex 4 -43 8.2
    endloop
  endfacet
  facet normal -2.11177e-016 0.309017 0.951056
    outer loop
      vertex 0 -43.7321 8.35562
      vertex 4 -43.7321 8.35562
      vertex 4 -43.3742 8.23933
    endloop
  endfacet
  facet normal -2.11177e-016 0.309017 0.951056
    outer loop
      vertex 0 -43.3742 8.23933
      vertex 0 -43.7321 8.35562
      vertex 4 -43.3742 8.23933
    endloop
  endfacet
  facet normal -1.92296e-016 0.5 0.866025
    outer loop
      vertex 0 -44.058 8.54377
      vertex 4 -44.058 8.54377
      vertex 4 -43.7321 8.35562
    endloop
  endfacet
  facet normal -1.92296e-016 0.5 0.866025
    outer loop
      vertex 0 -43.7321 8.35562
      vertex 0 -44.058 8.54377
      vertex 4 -43.7321 8.35562
    endloop
  endfacet
  facet normal -1.65011e-016 0.66913 0.743145
    outer loop
      vertex 0 -44.3377 8.79556
      vertex 4 -44.3377 8.79556
      vertex 4 -44.058 8.54377
    endloop
  endfacet
  facet normal -1.65011e-016 0.66913 0.743145
    outer loop
      vertex 0 -44.058 8.54377
      vertex 0 -44.3377 8.79556
      vertex 4 -44.058 8.54377
    endloop
  endfacet
  facet normal -1.30515e-016 0.809017 0.587785
    outer loop
      vertex 4 -44.5588 9.1
      vertex 4 -44.3377 8.79556
      vertex 0 -44.5588 9.1
    endloop
  endfacet
  facet normal -1.30515e-016 0.809017 0.587785
    outer loop
      vertex 0 -44.5588 9.1
      vertex 4 -44.3377 8.79556
      vertex 0 -44.3377 8.79556
    endloop
  endfacet
  facet normal -9.03138e-017 0.913545 0.406737
    outer loop
      vertex 4 -44.7119 9.44377
      vertex 4 -44.5588 9.1
      vertex 0 -44.7119 9.44377
    endloop
  endfacet
  facet normal -9.03138e-017 0.913545 0.406737
    outer loop
      vertex 0 -44.7119 9.44377
      vertex 4 -44.5588 9.1
      vertex 0 -44.5588 9.1
    endloop
  endfacet
  facet normal 0 1 0
    outer loop
      vertex 6 -8 14
      vertex 8 -8 12
      vertex 6 -8 1.51472
    endloop
  endfacet
  facet normal 0 1 0
    outer loop
      vertex 6 -8 1.51472
      vertex 8 -8 12
      vertex 23.5 -8 12
    endloop
  endfacet
  facet normal 0 1 0
    outer loop
      vertex 6 -8 1.51472
      vertex 23.5 -8 12
      vertex 30 -8 5.5
    endloop
  endfacet
  facet normal 0 1 0
    outer loop
      vertex 6 -8 1.51472
      vertex 30 -8 5.5
      vertex 30 -8 5
    endloop
  endfacet
  facet normal 0 1 0
    outer loop
      vertex 6 -8 1.51472
      vertex 30 -8 5
      vertex 33 -8 5
    endloop
  endfacet
  facet normal 0 1 0
    outer loop
      vertex 6 -8 1.51472
      vertex 33 -8 5
      vertex 33 -8 0
    endloop
  endfacet
  facet normal 0 1 0
    outer loop
      vertex 6 -8 1.51472
      vertex 33 -8 0
      vertex 7.07107 -8 0
    endloop
  endfacet
  facet normal 0.707107 0 0.707107
    outer loop
      vertex 4 -39.9 16
      vertex 4 -26.1 16
      vertex 4 -50 16
    endloop
  endfacet
  facet normal 0.707107 0 0.707107
    outer loop
      vertex 4 -50 16
      vertex 7.9 -46.1 12.1
      vertex 4 -46.1 16
    endloop
  endfacet
  facet normal 0.707107 0 0.707107
    outer loop
      vertex 4 -19.9 16
      vertex 4 -10 16
      vertex 4 -50 16
    endloop
  endfacet
  facet normal 0.707107 0 0.707107
    outer loop
      vertex 4 -39.9 16
      vertex 4 -50 16
      vertex 4 -46.1 16
    endloop
  endfacet
  facet normal 0.707107 0 0.707107
    outer loop
      vertex 8 -39.9 12
      vertex 8 -26.1 12
      vertex 4 -39.9 16
    endloop
  endfacet
  facet normal 0.707107 0 0.707107
    outer loop
      vertex 8 -26.1 12
      vertex 4 -26.1 16
      vertex 4 -39.9 16
    endloop
  endfacet
  facet normal 0.707107 0 0.707107
    outer loop
      vertex 4 -26.1 16
      vertex 4 -19.9 16
      vertex 4 -50 16
    endloop
  endfacet
  facet normal 0.707107 0 0.707107
    outer loop
      vertex 8 -19.9 12
      vertex 8 -13.01 12
      vertex 4 -19.9 16
    endloop
  endfacet
  facet normal 0.707107 0 0.707107
    outer loop
      vertex 8 -13.01 12
      vertex 8 -8 12
      vertex 4 -19.9 16
    endloop
  endfacet
  facet normal 0.707107 0 0.707107
    outer loop
      vertex 8 -8 12
      vertex 6 -8 14
      vertex 4 -19.9 16
    endloop
  endfacet
  facet normal 0.707107 0 0.707107
    outer loop
      vertex 6 -8 14
      vertex 4 -10 16
      vertex 4 -19.9 16
    endloop
  endfacet
  facet normal 0.707107 -0.707107 0
    outer loop
      vertex 1 -53 0
      vertex 8 -46 0
      vertex 8 -46 9.28539
    endloop
  endfacet
  facet normal 0.707107 -0.707107 0
    outer loop
      vertex 7.91698 -46.083 10
      vertex 1 -53 0
      vertex 7.91698 -46.083 9.67596
    endloop
  endfacet
  facet normal 0.707107 -0.707107 0
    outer loop
      vertex 7.91698 -46.083 9.67596
      vertex 1 -53 0
      vertex 8 -46 9.28539
    endloop
  endfacet
  facet normal 0.707107 -0.707107 0
    outer loop
      vertex 7.9 -46.1 10
      vertex 1 -53 0
      vertex 7.91698 -46.083 10
    endloop
  endfacet
  facet normal 0.707107 -0.707107 0
    outer loop
      vertex 7.9 -46.1 12.1
      vertex 1 -53 0
      vertex 7.9 -46.1 10
    endloop
  endfacet
  facet normal 0.707107 -0.707107 0
    outer loop
      vertex 4 -50 16
      vertex 1 -53 0
      vertex 7.9 -46.1 12.1
    endloop
  endfacet
  facet normal 0.707107 -0.707107 0
    outer loop
      vertex 1 -53 16
      vertex 1 -53 0
      vertex 4 -50 16
    endloop
  endfacet
  facet normal 1 0 0
    outer loop
      vertex 8 -26.083 9.67596
      vertex 8 -26.083 10
      vertex 8 -46 0
    endloop
  endfacet
  facet normal 1 0 0
    outer loop
      vertex 8 -46 0
      vertex 8 -23 0
      vertex 8 -23 5
    endloop
  endfacet
  facet normal 1 0 0
    outer loop
      vertex 8 -22.3555 6.96774
      vertex 8 -46 0
      vertex 8 -23 5
    endloop
  endfacet
  facet normal 1 0 0
    outer loop
      vertex 8 -13.01 5
      vertex 8 -13.01 12
      vertex 8 -23 5
    endloop
  endfacet
  facet normal 1 0 0
    outer loop
      vertex 8 -39.917 10
      vertex 8 -39.917 9.67596
      vertex 8 -39.9 10
    endloop
  endfacet
  facet normal 1 0 0
    outer loop
      vertex 8 -13.01 12
      vertex 8 -19.9 12
      vertex 8 -19.9 10
    endloop
  endfacet
  facet normal 1 0 0
    outer loop
      vertex 8 -19.917 9.67596
      vertex 8 -20.0517 9.04205
      vertex 8 -13.01 12
    endloop
  endfacet
  facet normal 1 0 0
    outer loop
      vertex 8 -41.1779 7.49205
      vertex 8 -41.7391 7.16801
      vertex 8 -46 0
    endloop
  endfacet
  facet normal 1 0 0
    outer loop
      vertex 8 -13.01 12
      vertex 8 -19.9 10
      vertex 8 -19.917 9.67596
    endloop
  endfacet
  facet normal 1 0 0
    outer loop
      vertex 8 -22.3555 6.96774
      vertex 8 -23 6.9
      vertex 8 -46 0
    endloop
  endfacet
  facet normal 1 0 0
    outer loop
      vertex 8 -21.1779 7.49205
      vertex 8 -21.7391 7.16801
      vertex 8 -23 5
    endloop
  endfacet
  facet normal 1 0 0
    outer loop
      vertex 8 -13.01 12
      vertex 8 -20.0517 9.04205
      vertex 8 -20.3153 8.45
    endloop
  endfacet
  facet normal 1 0 0
    outer loop
      vertex 8 -13.01 12
      vertex 8 -20.6963 7.9257
      vertex 8 -23 5
    endloop
  endfacet
  facet normal 1 0 0
    outer loop
      vertex 8 -13.01 12
      vertex 8 -20.3153 8.45
      vertex 8 -20.6963 7.9257
    endloop
  endfacet
  facet normal 1 0 0
    outer loop
      vertex 8 -21.7391 7.16801
      vertex 8 -22.3555 6.96774
      vertex 8 -23 5
    endloop
  endfacet
  facet normal 1 0 0
    outer loop
      vertex 8 -24.2609 7.16801
      vertex 8 -24.8221 7.49205
      vertex 8 -46 0
    endloop
  endfacet
  facet normal 1 0 0
    outer loop
      vertex 8 -23.6445 6.96774
      vertex 8 -46 0
      vertex 8 -23 6.9
    endloop
  endfacet
  facet normal 1 0 0
    outer loop
      vertex 8 -24.2609 7.16801
      vertex 8 -46 0
      vertex 8 -23.6445 6.96774
    endloop
  endfacet
  facet normal 1 0 0
    outer loop
      vertex 8 -24.8221 7.49205
      vertex 8 -25.3037 7.9257
      vertex 8 -46 0
    endloop
  endfacet
  facet normal 1 0 0
    outer loop
      vertex 8 -20.6963 7.9257
      vertex 8 -21.1779 7.49205
      vertex 8 -23 5
    endloop
  endfacet
  facet normal 1 0 0
    outer loop
      vertex 8 -25.3037 7.9257
      vertex 8 -25.6847 8.45
      vertex 8 -46 0
    endloop
  endfacet
  facet normal 1 0 0
    outer loop
      vertex 8 -25.6847 8.45
      vertex 8 -25.9483 9.04205
      vertex 8 -46 0
    endloop
  endfacet
  facet normal 1 0 0
    outer loop
      vertex 8 -42.3555 6.96774
      vertex 8 -43 6.9
      vertex 8 -46 0
    endloop
  endfacet
  facet normal 1 0 0
    outer loop
      vertex 8 -26.1 10
      vertex 8 -26.1 12
      vertex 8 -46 0
    endloop
  endfacet
  facet normal 1 0 0
    outer loop
      vertex 8 -43 6.9
      vertex 8 -43.6445 6.96774
      vertex 8 -46 0
    endloop
  endfacet
  facet normal 1 0 0
    outer loop
      vertex 8 -26.083 10
      vertex 8 -26.1 10
      vertex 8 -46 0
    endloop
  endfacet
  facet normal 1 0 0
    outer loop
      vertex 8 -26.1 12
      vertex 8 -39.9 12
      vertex 8 -39.9 10
    endloop
  endfacet
  facet normal 1 0 0
    outer loop
      vertex 8 -40.6963 7.9257
      vertex 8 -41.1779 7.49205
      vertex 8 -46 0
    endloop
  endfacet
  facet normal 1 0 0
    outer loop
      vertex 8 -26.1 12
      vertex 8 -39.9 10
      vertex 8 -39.917 9.67596
    endloop
  endfacet
  facet normal 1 0 0
    outer loop
      vertex 8 -26.1 12
      vertex 8 -39.917 9.67596
      vertex 8 -40.0517 9.04205
    endloop
  endfacet
  facet normal 1 0 0
    outer loop
      vertex 8 -26.1 12
      vertex 8 -40.3153 8.45
      vertex 8 -46 0
    endloop
  endfacet
  facet normal 1 0 0
    outer loop
      vertex 8 -26.1 12
      vertex 8 -40.0517 9.04205
      vertex 8 -40.3153 8.45
    endloop
  endfacet
  facet normal 1 0 0
    outer loop
      vertex 8 -40.3153 8.45
      vertex 8 -40.6963 7.9257
      vertex 8 -46 0
    endloop
  endfacet
  facet normal 1 0 0
    outer loop
      vertex 8 -41.7391 7.16801
      vertex 8 -42.3555 6.96774
      vertex 8 -46 0
    endloop
  endfacet
  facet normal 1 0 0
    outer loop
      vertex 8 -43.6445 6.96774
      vertex 8 -44.2609 7.16801
      vertex 8 -46 0
    endloop
  endfacet
  facet normal 1 0 0
    outer loop
      vertex 8 -44.2609 7.16801
      vertex 8 -44.8221 7.49205
      vertex 8 -46 0
    endloop
  endfacet
  facet normal 1 0 0
    outer loop
      vertex 8 -44.8221 7.49205
      vertex 8 -45.3037 7.9257
      vertex 8 -46 0
    endloop
  endfacet
  facet normal 1 0 0
    outer loop
      vertex 8 -45.3037 7.9257
      vertex 8 -45.6847 8.45
      vertex 8 -46 0
    endloop
  endfacet
  facet normal 1 0 0
    outer loop
      vertex 8 -45.6847 8.45
      vertex 8 -45.9483 9.04205
      vertex 8 -46 0
    endloop
  endfacet
  facet normal 1 0 0
    outer loop
      vertex 8 -45.9483 9.04205
      vertex 8 -46 9.28539
      vertex 8 -46 0
    endloop
  endfacet
  facet normal 1 0 0
    outer loop
      vertex 8 -25.9483 9.04205
      vertex 8 -26.083 9.67596
      vertex 8 -46 0
    endloop
  endfacet
  facet normal 1 0 0
    outer loop
      vertex 8 -19.917 10
      vertex 8 -19.917 9.67596
      vertex 8 -19.9 10
    endloop
  endfacet
  facet normal 0 -1 0
    outer loop
      vertex 30.3 -23 0.6
      vertex 35 -23 0
      vertex 35 -23 5
    endloop
  endfacet
  facet normal 0 -1 0
    outer loop
      vertex 8 -23 0
      vertex 35 -23 0
      vertex 30.3 -23 0.6
    endloop
  endfacet
  facet normal 0 -1 0
    outer loop
      vertex 28.3 -23 0.6
      vertex 28.3 -23 5
      vertex 8 -23 0
    endloop
  endfacet
  facet normal 0 -1 0
    outer loop
      vertex 8 -23 0
      vertex 30.3 -23 0.6
      vertex 28.3 -23 0.6
    endloop
  endfacet
  facet normal 0 -1 0
    outer loop
      vertex 8 -23 5
      vertex 8 -23 0
      vertex 28.3 -23 5
    endloop
  endfacet
  facet normal 0 -1 0
    outer loop
      vertex 30.3 -23 5
      vertex 30.3 -23 0.6
      vertex 35 -23 5
    endloop
  endfacet
  facet normal 0.707107 -0.707107 0
    outer loop
      vertex 35 -23 0
      vertex 38 -20 0
      vertex 38 -20 5
    endloop
  endfacet
  facet normal 0.707107 -0.707107 0
    outer loop
      vertex 35 -23 5
      vertex 35 -23 0
      vertex 38 -20 5
    endloop
  endfacet
  facet normal 1 0 0
    outer loop
      vertex 38 -20 0
      vertex 38 -13 0
      vertex 38 -13 5
    endloop
  endfacet
  facet normal 1 0 0
    outer loop
      vertex 38 -20 5
      vertex 38 -20 0
      vertex 38 -13 5
    endloop
  endfacet
  facet normal 0.707107 0.707107 0
    outer loop
      vertex 33 -8 0
      vertex 33 -8 5
      vertex 38 -13 5
    endloop
  endfacet
  facet normal 0.707107 0.707107 0
    outer loop
      vertex 38 -13 0
      vertex 33 -8 0
      vertex 38 -13 5
    endloop
  endfacet
  facet normal 0.913546 0.406736 0
    outer loop
      vertex 25.2896 -18.0524 0
      vertex 25.2896 -18.0524 5
      vertex 25.983 -19.6099 5
    endloop
  endfacet
  facet normal 0.913546 0.406736 0
    outer loop
      vertex 25.983 -19.6099 0
      vertex 25.2896 -18.0524 0
      vertex 25.983 -19.6099 5
    endloop
  endfacet
  facet normal 1 0 0
    outer loop
      vertex 25.2896 -18.0524 0
      vertex 25.2896 -16.3476 0
      vertex 25.2896 -16.3476 5
    endloop
  endfacet
  facet normal 1 0 0
    outer loop
      vertex 25.2896 -18.0524 5
      vertex 25.2896 -18.0524 0
      vertex 25.2896 -16.3476 5
    endloop
  endfacet
  facet normal 0.913546 -0.406736 0
    outer loop
      vertex 25.2896 -16.3476 0
      vertex 25.983 -14.7901 0
      vertex 25.983 -14.7901 5
    endloop
  endfacet
  facet normal 0.913546 -0.406736 0
    outer loop
      vertex 25.2896 -16.3476 5
      vertex 25.2896 -16.3476 0
      vertex 25.983 -14.7901 5
    endloop
  endfacet
  facet normal 0.66913 -0.743145 0
    outer loop
      vertex 25.983 -14.7901 0
      vertex 27.25 -13.6493 0
      vertex 27.25 -13.6493 5
    endloop
  endfacet
  facet normal 0.66913 -0.743145 0
    outer loop
      vertex 25.983 -14.7901 5
      vertex 25.983 -14.7901 0
      vertex 27.25 -13.6493 5
    endloop
  endfacet
  facet normal 0.309017 -0.951056 0
    outer loop
      vertex 27.25 -13.6493 0
      vertex 28.8714 -13.1225 0
      vertex 28.8714 -13.1225 5
    endloop
  endfacet
  facet normal 0.309017 -0.951056 0
    outer loop
      vertex 27.25 -13.6493 5
      vertex 27.25 -13.6493 0
      vertex 28.8714 -13.1225 5
    endloop
  endfacet
  facet normal -0.104528 -0.994522 0
    outer loop
      vertex 28.8714 -13.1225 0
      vertex 30.567 -13.3007 0
      vertex 30.567 -13.3007 5
    endloop
  endfacet
  facet normal -0.104528 -0.994522 0
    outer loop
      vertex 28.8714 -13.1225 5
      vertex 28.8714 -13.1225 0
      vertex 30.567 -13.3007 5
    endloop
  endfacet
  facet normal -0.5 -0.866025 0
    outer loop
      vertex 30.567 -13.3007 0
      vertex 32.0434 -14.1531 0
      vertex 32.0434 -14.1531 5
    endloop
  endfacet
  facet normal -0.5 -0.866025 0
    outer loop
      vertex 30.567 -13.3007 5
      vertex 30.567 -13.3007 0
      vertex 32.0434 -14.1531 5
    endloop
  endfacet
  facet normal -0.809017 -0.587785 0
    outer loop
      vertex 33.0455 -15.5324 0
      vertex 33.0455 -15.5324 5
      vertex 32.0434 -14.1531 0
    endloop
  endfacet
  facet normal -0.809017 -0.587785 0
    outer loop
      vertex 32.0434 -14.1531 0
      vertex 33.0455 -15.5324 5
      vertex 32.0434 -14.1531 5
    endloop
  endfacet
  facet normal -0.978148 -0.207912 0
    outer loop
      vertex 33.4 -17.2 0
      vertex 33.4 -17.2 5
      vertex 33.0455 -15.5324 0
    endloop
  endfacet
  facet normal -0.978148 -0.207912 0
    outer loop
      vertex 33.0455 -15.5324 0
      vertex 33.4 -17.2 5
      vertex 33.0455 -15.5324 5
    endloop
  endfacet
  facet normal -0.978148 0.207912 0
    outer loop
      vertex 33.0455 -18.8676 5
      vertex 33.4 -17.2 5
      vertex 33.0455 -18.8676 0
    endloop
  endfacet
  facet normal -0.978148 0.207912 0
    outer loop
      vertex 33.0455 -18.8676 0
      vertex 33.4 -17.2 5
      vertex 33.4 -17.2 0
    endloop
  endfacet
  facet normal -0.809017 0.587785 0
    outer loop
      vertex 32.0434 -20.2469 5
      vertex 33.0455 -18.8676 5
      vertex 32.0434 -20.2469 0
    endloop
  endfacet
  facet normal -0.809017 0.587785 0
    outer loop
      vertex 32.0434 -20.2469 0
      vertex 33.0455 -18.8676 5
      vertex 33.0455 -18.8676 0
    endloop
  endfacet
  facet normal -0.5 0.866025 0
    outer loop
      vertex 30.567 -21.0993 5
      vertex 32.0434 -20.2469 5
      vertex 30.567 -21.0993 0
    endloop
  endfacet
  facet normal -0.5 0.866025 0
    outer loop
      vertex 30.567 -21.0993 0
      vertex 32.0434 -20.2469 5
      vertex 32.0434 -20.2469 0
    endloop
  endfacet
  facet normal -0.104528 0.994522 0
    outer loop
      vertex 28.8714 -21.2775 0.6
      vertex 30.3 -21.1274 0.6
      vertex 28.8714 -21.2775 0
    endloop
  endfacet
  facet normal -0.104528 0.994522 0
    outer loop
      vertex 30.567 -21.0993 5
      vertex 30.3 -21.1274 0.6
      vertex 30.3 -21.1274 5
    endloop
  endfacet
  facet normal -0.104528 0.994522 0
    outer loop
      vertex 30.567 -21.0993 0
      vertex 30.3 -21.1274 0.6
      vertex 30.567 -21.0993 5
    endloop
  endfacet
  facet normal -0.104528 0.994522 0
    outer loop
      vertex 28.8714 -21.2775 0
      vertex 30.3 -21.1274 0.6
      vertex 30.567 -21.0993 0
    endloop
  endfacet
  facet normal 0.309017 0.951056 0
    outer loop
      vertex 27.25 -20.7507 5
      vertex 28.3 -21.0919 5
      vertex 27.25 -20.7507 0
    endloop
  endfacet
  facet normal 0.309017 0.951056 0
    outer loop
      vertex 27.25 -20.7507 0
      vertex 28.3 -21.0919 5
      vertex 28.3 -21.0919 0.6
    endloop
  endfacet
  facet normal 0.309017 0.951056 0
    outer loop
      vertex 27.25 -20.7507 0
      vertex 28.3 -21.0919 0.6
      vertex 28.8714 -21.2775 0.6
    endloop
  endfacet
  facet normal 0.309017 0.951056 0
    outer loop
      vertex 27.25 -20.7507 0
      vertex 28.8714 -21.2775 0.6
      vertex 28.8714 -21.2775 0
    endloop
  endfacet
  facet normal 0.66913 0.743145 0
    outer loop
      vertex 25.983 -19.6099 5
      vertex 27.25 -20.7507 5
      vertex 25.983 -19.6099 0
    endloop
  endfacet
  facet normal 0.66913 0.743145 0
    outer loop
      vertex 25.983 -19.6099 0
      vertex 27.25 -20.7507 5
      vertex 27.25 -20.7507 0
    endloop
  endfacet
  facet normal 1 0 2.22045e-016
    outer loop
      vertex 4 -23 13.1
      vertex 4 -23.6445 13.0323
      vertex 4 -24.2609 12.832
    endloop
  endfacet
  facet normal 1 0 2.22045e-016
    outer loop
      vertex 4 -25.3037 12.0743
      vertex 4 -23 13.1
      vertex 4 -24.8221 12.508
    endloop
  endfacet
  facet normal 1 0 2.22045e-016
    outer loop
      vertex 4 -24.8221 12.508
      vertex 4 -23 13.1
      vertex 4 -24.2609 12.832
    endloop
  endfacet
  facet normal 1 0 2.22045e-016
    outer loop
      vertex 4 -25.6847 11.55
      vertex 4 -23 13.1
      vertex 4 -25.3037 12.0743
    endloop
  endfacet
  facet normal 1 0 2.22045e-016
    outer loop
      vertex 4 -25.9483 10.958
      vertex 4 -23 13.1
      vertex 4 -25.6847 11.55
    endloop
  endfacet
  facet normal 1 0 2.22045e-016
    outer loop
      vertex 4 -26.083 10.324
      vertex 4 -23 13.1
      vertex 4 -25.9483 10.958
    endloop
  endfacet
  facet normal 1 0 2.22045e-016
    outer loop
      vertex 4 -26.083 10
      vertex 4 -23 13.1
      vertex 4 -26.083 10.324
    endloop
  endfacet
  facet normal 1 0 2.22045e-016
    outer loop
      vertex 4 -26.083 9.67596
      vertex 4 -23 13.1
      vertex 4 -26.083 10
    endloop
  endfacet
  facet normal 1 0 2.22045e-016
    outer loop
      vertex 4 -25.9483 9.04205
      vertex 4 -23 13.1
      vertex 4 -26.083 9.67596
    endloop
  endfacet
  facet normal 1 0 2.22045e-016
    outer loop
      vertex 4 -24.5588 10.9
      vertex 4 -23 13.1
      vertex 4 -25.9483 9.04205
    endloop
  endfacet
  facet normal 1 0 2.22045e-016
    outer loop
      vertex 4 -24.3377 11.2044
      vertex 4 -24.058 11.4562
      vertex 4 -23 13.1
    endloop
  endfacet
  facet normal 1 0 2.22045e-016
    outer loop
      vertex 4 -24.7901 9.81185
      vertex 4 -24.7901 10.1882
      vertex 4 -25.6847 8.45
    endloop
  endfacet
  facet normal 1 0 2.22045e-016
    outer loop
      vertex 4 -24.5588 9.1
      vertex 4 -24.7119 9.44377
      vertex 4 -25.3037 7.9257
    endloop
  endfacet
  facet normal 1 0 2.22045e-016
    outer loop
      vertex 4 -23.3742 8.23933
      vertex 4 -23.7321 8.35562
      vertex 4 -23.6445 6.96774
    endloop
  endfacet
  facet normal 1 0 2.22045e-016
    outer loop
      vertex 4 -23 6.9
      vertex 4 -23 8.2
      vertex 4 -23.6445 6.96774
    endloop
  endfacet
  facet normal 1 0 2.22045e-016
    outer loop
      vertex 4 -21.942 8.54377
      vertex 4 -22.2679 8.35562
      vertex 4 -21.7391 7.16801
    endloop
  endfacet
  facet normal 1 0 2.22045e-016
    outer loop
      vertex 4 -21.2099 10.1882
      vertex 4 -21.2099 9.81185
      vertex 4 -20.3153 8.45
    endloop
  endfacet
  facet normal 1 0 2.22045e-016
    outer loop
      vertex 4 -21.2881 9.44377
      vertex 4 -21.4412 9.1
      vertex 4 -20.6963 7.9257
    endloop
  endfacet
  facet normal 1 0 2.22045e-016
    outer loop
      vertex 4 -19.917 9.67596
      vertex 4 -23 13.1
      vertex 4 -20.0517 9.04205
    endloop
  endfacet
  facet normal 1 0 2.22045e-016
    outer loop
      vertex 4 -19.917 10
      vertex 4 -23 13.1
      vertex 4 -19.917 9.67596
    endloop
  endfacet
  facet normal 1 0 2.22045e-016
    outer loop
      vertex 4 -19.917 10.324
      vertex 4 -23 13.1
      vertex 4 -19.917 10
    endloop
  endfacet
  facet normal 1 0 2.22045e-016
    outer loop
      vertex 4 -20.0517 10.958
      vertex 4 -23 13.1
      vertex 4 -19.917 10.324
    endloop
  endfacet
  facet normal 1 0 2.22045e-016
    outer loop
      vertex 4 -20.3153 11.55
      vertex 4 -23 13.1
      vertex 4 -20.0517 10.958
    endloop
  endfacet
  facet normal 1 0 2.22045e-016
    outer loop
      vertex 4 -20.6963 12.0743
      vertex 4 -23 13.1
      vertex 4 -20.3153 11.55
    endloop
  endfacet
  facet normal 1 0 2.22045e-016
    outer loop
      vertex 4 -21.1779 12.508
      vertex 4 -23 13.1
      vertex 4 -20.6963 12.0743
    endloop
  endfacet
  facet normal 1 0 2.22045e-016
    outer loop
      vertex 4 -21.7391 12.832
      vertex 4 -23 13.1
      vertex 4 -21.1779 12.508
    endloop
  endfacet
  facet normal 1 0 2.22045e-016
    outer loop
      vertex 4 -22.3555 13.0323
      vertex 4 -23 13.1
      vertex 4 -21.7391 12.832
    endloop
  endfacet
  facet normal 1 0 2.22045e-016
    outer loop
      vertex 4 -23.7321 8.35562
      vertex 4 -24.058 8.54377
      vertex 4 -24.2609 7.16801
    endloop
  endfacet
  facet normal 1 0 2.22045e-016
    outer loop
      vertex 4 -22.6258 11.7607
      vertex 4 -22.2679 11.6444
      vertex 4 -23 13.1
    endloop
  endfacet
  facet normal 1 0 2.22045e-016
    outer loop
      vertex 4 -23.7321 11.6444
      vertex 4 -23.3742 11.7607
      vertex 4 -23 13.1
    endloop
  endfacet
  facet normal 1 0 2.22045e-016
    outer loop
      vertex 4 -21.4412 10.9
      vertex 4 -21.2881 10.5562
      vertex 4 -20.0517 9.04205
    endloop
  endfacet
  facet normal 1 0 2.22045e-016
    outer loop
      vertex 4 -21.4412 9.1
      vertex 4 -21.6623 8.79556
      vertex 4 -21.1779 7.49205
    endloop
  endfacet
  facet normal 1 0 2.22045e-016
    outer loop
      vertex 4 -21.6623 11.2044
      vertex 4 -23 13.1
      vertex 4 -21.942 11.4562
    endloop
  endfacet
  facet normal 1 0 2.22045e-016
    outer loop
      vertex 4 -20.0517 9.04205
      vertex 4 -23 13.1
      vertex 4 -21.6623 11.2044
    endloop
  endfacet
  facet normal 1 0 2.22045e-016
    outer loop
      vertex 4 -20.0517 9.04205
      vertex 4 -21.6623 11.2044
      vertex 4 -21.4412 10.9
    endloop
  endfacet
  facet normal 1 0 2.22045e-016
    outer loop
      vertex 4 -20.0517 9.04205
      vertex 4 -21.2881 10.5562
      vertex 4 -20.3153 8.45
    endloop
  endfacet
  facet normal 1 0 2.22045e-016
    outer loop
      vertex 4 -21.2881 10.5562
      vertex 4 -21.2099 10.1882
      vertex 4 -20.3153 8.45
    endloop
  endfacet
  facet normal 1 0 2.22045e-016
    outer loop
      vertex 4 -20.3153 8.45
      vertex 4 -21.2099 9.81185
      vertex 4 -20.6963 7.9257
    endloop
  endfacet
  facet normal 1 0 2.22045e-016
    outer loop
      vertex 4 -21.2099 9.81185
      vertex 4 -21.2881 9.44377
      vertex 4 -20.6963 7.9257
    endloop
  endfacet
  facet normal 1 0 2.22045e-016
    outer loop
      vertex 4 -20.6963 7.9257
      vertex 4 -21.4412 9.1
      vertex 4 -21.1779 7.49205
    endloop
  endfacet
  facet normal 1 0 2.22045e-016
    outer loop
      vertex 4 -22.2679 11.6444
      vertex 4 -21.942 11.4562
      vertex 4 -23 13.1
    endloop
  endfacet
  facet normal 1 0 2.22045e-016
    outer loop
      vertex 4 -21.1779 7.49205
      vertex 4 -21.6623 8.79556
      vertex 4 -21.7391 7.16801
    endloop
  endfacet
  facet normal 1 0 2.22045e-016
    outer loop
      vertex 4 -21.6623 8.79556
      vertex 4 -21.942 8.54377
      vertex 4 -21.7391 7.16801
    endloop
  endfacet
  facet normal 1 0 2.22045e-016
    outer loop
      vertex 4 -21.7391 7.16801
      vertex 4 -22.2679 8.35562
      vertex 4 -22.3555 6.96774
    endloop
  endfacet
  facet normal 1 0 2.22045e-016
    outer loop
      vertex 4 -22.2679 8.35562
      vertex 4 -22.6258 8.23933
      vertex 4 -22.3555 6.96774
    endloop
  endfacet
  facet normal 1 0 2.22045e-016
    outer loop
      vertex 4 -22.3555 6.96774
      vertex 4 -22.6258 8.23933
      vertex 4 -23 6.9
    endloop
  endfacet
  facet normal 1 0 2.22045e-016
    outer loop
      vertex 4 -22.6258 8.23933
      vertex 4 -23 8.2
      vertex 4 -23 6.9
    endloop
  endfacet
  facet normal 1 0 2.22045e-016
    outer loop
      vertex 4 -23 8.2
      vertex 4 -23.3742 8.23933
      vertex 4 -23.6445 6.96774
    endloop
  endfacet
  facet normal 1 0 2.22045e-016
    outer loop
      vertex 4 -23.6445 6.96774
      vertex 4 -23.7321 8.35562
      vertex 4 -24.2609 7.16801
    endloop
  endfacet
  facet normal 1 0 2.22045e-016
    outer loop
      vertex 4 -24.058 11.4562
      vertex 4 -23.7321 11.6444
      vertex 4 -23 13.1
    endloop
  endfacet
  facet normal 1 0 2.22045e-016
    outer loop
      vertex 4 -24.2609 7.16801
      vertex 4 -24.058 8.54377
      vertex 4 -24.8221 7.49205
    endloop
  endfacet
  facet normal 1 0 2.22045e-016
    outer loop
      vertex 4 -23 11.8
      vertex 4 -22.6258 11.7607
      vertex 4 -23 13.1
    endloop
  endfacet
  facet normal 1 0 2.22045e-016
    outer loop
      vertex 4 -24.058 8.54377
      vertex 4 -24.3377 8.79556
      vertex 4 -24.8221 7.49205
    endloop
  endfacet
  facet normal 1 0 2.22045e-016
    outer loop
      vertex 4 -24.8221 7.49205
      vertex 4 -24.5588 9.1
      vertex 4 -25.3037 7.9257
    endloop
  endfacet
  facet normal 1 0 2.22045e-016
    outer loop
      vertex 4 -25.3037 7.9257
      vertex 4 -24.7119 9.44377
      vertex 4 -25.6847 8.45
    endloop
  endfacet
  facet normal 1 0 2.22045e-016
    outer loop
      vertex 4 -24.7119 9.44377
      vertex 4 -24.7901 9.81185
      vertex 4 -25.6847 8.45
    endloop
  endfacet
  facet normal 1 0 2.22045e-016
    outer loop
      vertex 4 -25.6847 8.45
      vertex 4 -24.7901 10.1882
      vertex 4 -25.9483 9.04205
    endloop
  endfacet
  facet normal 1 0 2.22045e-016
    outer loop
      vertex 4 -24.7901 10.1882
      vertex 4 -24.7119 10.5562
      vertex 4 -25.9483 9.04205
    endloop
  endfacet
  facet normal 1 0 2.22045e-016
    outer loop
      vertex 4 -24.7119 10.5562
      vertex 4 -24.5588 10.9
      vertex 4 -25.9483 9.04205
    endloop
  endfacet
  facet normal 1 0 2.22045e-016
    outer loop
      vertex 4 -24.3377 11.2044
      vertex 4 -23 13.1
      vertex 4 -24.5588 10.9
    endloop
  endfacet
  facet normal 1 0 2.22045e-016
    outer loop
      vertex 4 -24.3377 8.79556
      vertex 4 -24.5588 9.1
      vertex 4 -24.8221 7.49205
    endloop
  endfacet
  facet normal 1 0 2.22045e-016
    outer loop
      vertex 4 -23.3742 11.7607
      vertex 4 -23 11.8
      vertex 4 -23 13.1
    endloop
  endfacet
  facet normal 1 0 2.22045e-016
    outer loop
      vertex 4 -43 13.1
      vertex 4 -43.6445 13.0323
      vertex 4 -44.2609 12.832
    endloop
  endfacet
  facet normal 1 0 2.22045e-016
    outer loop
      vertex 4 -45.3037 12.0743
      vertex 4 -43 13.1
      vertex 4 -44.8221 12.508
    endloop
  endfacet
  facet normal 1 0 2.22045e-016
    outer loop
      vertex 4 -44.8221 12.508
      vertex 4 -43 13.1
      vertex 4 -44.2609 12.832
    endloop
  endfacet
  facet normal 1 0 2.22045e-016
    outer loop
      vertex 4 -45.6847 11.55
      vertex 4 -43 13.1
      vertex 4 -45.3037 12.0743
    endloop
  endfacet
  facet normal 1 0 2.22045e-016
    outer loop
      vertex 4 -45.9483 10.958
      vertex 4 -43 13.1
      vertex 4 -45.6847 11.55
    endloop
  endfacet
  facet normal 1 0 2.22045e-016
    outer loop
      vertex 4 -46.083 10.324
      vertex 4 -43 13.1
      vertex 4 -45.9483 10.958
    endloop
  endfacet
  facet normal 1 0 2.22045e-016
    outer loop
      vertex 4 -46.083 10
      vertex 4 -43 13.1
      vertex 4 -46.083 10.324
    endloop
  endfacet
  facet normal 1 0 2.22045e-016
    outer loop
      vertex 4 -46.083 9.67596
      vertex 4 -43 13.1
      vertex 4 -46.083 10
    endloop
  endfacet
  facet normal 1 0 2.22045e-016
    outer loop
      vertex 4 -45.9483 9.04205
      vertex 4 -43 13.1
      vertex 4 -46.083 9.67596
    endloop
  endfacet
  facet normal 1 0 2.22045e-016
    outer loop
      vertex 4 -44.5588 10.9
      vertex 4 -43 13.1
      vertex 4 -45.9483 9.04205
    endloop
  endfacet
  facet normal 1 0 2.22045e-016
    outer loop
      vertex 4 -44.3377 11.2044
      vertex 4 -44.058 11.4562
      vertex 4 -43 13.1
    endloop
  endfacet
  facet normal 1 0 2.22045e-016
    outer loop
      vertex 4 -44.7901 9.81185
      vertex 4 -44.7901 10.1882
      vertex 4 -45.6847 8.45
    endloop
  endfacet
  facet normal 1 0 2.22045e-016
    outer loop
      vertex 4 -44.5588 9.1
      vertex 4 -44.7119 9.44377
      vertex 4 -45.3037 7.9257
    endloop
  endfacet
  facet normal 1 0 2.22045e-016
    outer loop
      vertex 4 -43.3742 8.23933
      vertex 4 -43.7321 8.35562
      vertex 4 -43.6445 6.96774
    endloop
  endfacet
  facet normal 1 0 2.22045e-016
    outer loop
      vertex 4 -43 6.9
      vertex 4 -43 8.2
      vertex 4 -43.6445 6.96774
    endloop
  endfacet
  facet normal 1 0 2.22045e-016
    outer loop
      vertex 4 -41.942 8.54377
      vertex 4 -42.2679 8.35562
      vertex 4 -41.7391 7.16801
    endloop
  endfacet
  facet normal 1 0 2.22045e-016
    outer loop
      vertex 4 -41.2099 10.1882
      vertex 4 -41.2099 9.81185
      vertex 4 -40.3153 8.45
    endloop
  endfacet
  facet normal 1 0 2.22045e-016
    outer loop
      vertex 4 -41.2881 9.44377
      vertex 4 -41.4412 9.1
      vertex 4 -40.6963 7.9257
    endloop
  endfacet
  facet normal 1 0 2.22045e-016
    outer loop
      vertex 4 -39.917 9.67596
      vertex 4 -43 13.1
      vertex 4 -40.0517 9.04205
    endloop
  endfacet
  facet normal 1 0 2.22045e-016
    outer loop
      vertex 4 -39.917 10
      vertex 4 -43 13.1
      vertex 4 -39.917 9.67596
    endloop
  endfacet
  facet normal 1 0 2.22045e-016
    outer loop
      vertex 4 -39.917 10.324
      vertex 4 -43 13.1
      vertex 4 -39.917 10
    endloop
  endfacet
  facet normal 1 0 2.22045e-016
    outer loop
      vertex 4 -40.0517 10.958
      vertex 4 -43 13.1
      vertex 4 -39.917 10.324
    endloop
  endfacet
  facet normal 1 0 2.22045e-016
    outer loop
      vertex 4 -40.3153 11.55
      vertex 4 -43 13.1
      vertex 4 -40.0517 10.958
    endloop
  endfacet
  facet normal 1 0 2.22045e-016
    outer loop
      vertex 4 -40.6963 12.0743
      vertex 4 -43 13.1
      vertex 4 -40.3153 11.55
    endloop
  endfacet
  facet normal 1 0 2.22045e-016
    outer loop
      vertex 4 -41.1779 12.508
      vertex 4 -43 13.1
      vertex 4 -40.6963 12.0743
    endloop
  endfacet
  facet normal 1 0 2.22045e-016
    outer loop
      vertex 4 -41.7391 12.832
      vertex 4 -43 13.1
      vertex 4 -41.1779 12.508
    endloop
  endfacet
  facet normal 1 0 2.22045e-016
    outer loop
      vertex 4 -42.3555 13.0323
      vertex 4 -43 13.1
      vertex 4 -41.7391 12.832
    endloop
  endfacet
  facet normal 1 0 2.22045e-016
    outer loop
      vertex 4 -43.7321 8.35562
      vertex 4 -44.058 8.54377
      vertex 4 -44.2609 7.16801
    endloop
  endfacet
  facet normal 1 0 2.22045e-016
    outer loop
      vertex 4 -42.6258 11.7607
      vertex 4 -42.2679 11.6444
      vertex 4 -43 13.1
    endloop
  endfacet
  facet normal 1 0 2.22045e-016
    outer loop
      vertex 4 -43.7321 11.6444
      vertex 4 -43.3742 11.7607
      vertex 4 -43 13.1
    endloop
  endfacet
  facet normal 1 0 2.22045e-016
    outer loop
      vertex 4 -41.4412 10.9
      vertex 4 -41.2881 10.5562
      vertex 4 -40.0517 9.04205
    endloop
  endfacet
  facet normal 1 0 2.22045e-016
    outer loop
      vertex 4 -41.4412 9.1
      vertex 4 -41.6623 8.79556
      vertex 4 -41.1779 7.49205
    endloop
  endfacet
  facet normal 1 0 2.22045e-016
    outer loop
      vertex 4 -41.6623 11.2044
      vertex 4 -43 13.1
      vertex 4 -41.942 11.4562
    endloop
  endfacet
  facet normal 1 0 2.22045e-016
    outer loop
      vertex 4 -40.0517 9.04205
      vertex 4 -43 13.1
      vertex 4 -41.6623 11.2044
    endloop
  endfacet
  facet normal 1 0 2.22045e-016
    outer loop
      vertex 4 -40.0517 9.04205
      vertex 4 -41.6623 11.2044
      vertex 4 -41.4412 10.9
    endloop
  endfacet
  facet normal 1 0 2.22045e-016
    outer loop
      vertex 4 -40.0517 9.04205
      vertex 4 -41.2881 10.5562
      vertex 4 -40.3153 8.45
    endloop
  endfacet
  facet normal 1 0 2.22045e-016
    outer loop
      vertex 4 -41.2881 10.5562
      vertex 4 -41.2099 10.1882
      vertex 4 -40.3153 8.45
    endloop
  endfacet
  facet normal 1 0 2.22045e-016
    outer loop
      vertex 4 -40.3153 8.45
      vertex 4 -41.2099 9.81185
      vertex 4 -40.6963 7.9257
    endloop
  endfacet
  facet normal 1 0 2.22045e-016
    outer loop
      vertex 4 -41.2099 9.81185
      vertex 4 -41.2881 9.44377
      vertex 4 -40.6963 7.9257
    endloop
  endfacet
  facet normal 1 0 2.22045e-016
    outer loop
      vertex 4 -40.6963 7.9257
      vertex 4 -41.4412 9.1
      vertex 4 -41.1779 7.49205
    endloop
  endfacet
  facet normal 1 0 2.22045e-016
    outer loop
      vertex 4 -42.2679 11.6444
      vertex 4 -41.942 11.4562
      vertex 4 -43 13.1
    endloop
  endfacet
  facet normal 1 0 2.22045e-016
    outer loop
      vertex 4 -41.1779 7.49205
      vertex 4 -41.6623 8.79556
      vertex 4 -41.7391 7.16801
    endloop
  endfacet
  facet normal 1 0 2.22045e-016
    outer loop
      vertex 4 -41.6623 8.79556
      vertex 4 -41.942 8.54377
      vertex 4 -41.7391 7.16801
    endloop
  endfacet
  facet normal 1 0 2.22045e-016
    outer loop
      vertex 4 -41.7391 7.16801
      vertex 4 -42.2679 8.35562
      vertex 4 -42.3555 6.96774
    endloop
  endfacet
  facet normal 1 0 2.22045e-016
    outer loop
      vertex 4 -42.2679 8.35562
      vertex 4 -42.6258 8.23933
      vertex 4 -42.3555 6.96774
    endloop
  endfacet
  facet normal 1 0 2.22045e-016
    outer loop
      vertex 4 -42.3555 6.96774
      vertex 4 -42.6258 8.23933
      vertex 4 -43 6.9
    endloop
  endfacet
  facet normal 1 0 2.22045e-016
    outer loop
      vertex 4 -42.6258 8.23933
      vertex 4 -43 8.2
      vertex 4 -43 6.9
    endloop
  endfacet
  facet normal 1 0 2.22045e-016
    outer loop
      vertex 4 -43 8.2
      vertex 4 -43.3742 8.23933
      vertex 4 -43.6445 6.96774
    endloop
  endfacet
  facet normal 1 0 2.22045e-016
    outer loop
      vertex 4 -43.6445 6.96774
      vertex 4 -43.7321 8.35562
      vertex 4 -44.2609 7.16801
    endloop
  endfacet
  facet normal 1 0 2.22045e-016
    outer loop
      vertex 4 -44.058 11.4562
      vertex 4 -43.7321 11.6444
      vertex 4 -43 13.1
    endloop
  endfacet
  facet normal 1 0 2.22045e-016
    outer loop
      vertex 4 -44.2609 7.16801
      vertex 4 -44.058 8.54377
      vertex 4 -44.8221 7.49205
    endloop
  endfacet
  facet normal 1 0 2.22045e-016
    outer loop
      vertex 4 -43 11.8
      vertex 4 -42.6258 11.7607
      vertex 4 -43 13.1
    endloop
  endfacet
  facet normal 1 0 2.22045e-016
    outer loop
      vertex 4 -44.058 8.54377
      vertex 4 -44.3377 8.79556
      vertex 4 -44.8221 7.49205
    endloop
  endfacet
  facet normal 1 0 2.22045e-016
    outer loop
      vertex 4 -44.8221 7.49205
      vertex 4 -44.5588 9.1
      vertex 4 -45.3037 7.9257
    endloop
  endfacet
  facet normal 1 0 2.22045e-016
    outer loop
      vertex 4 -45.3037 7.9257
      vertex 4 -44.7119 9.44377
      vertex 4 -45.6847 8.45
    endloop
  endfacet
  facet normal 1 0 2.22045e-016
    outer loop
      vertex 4 -44.7119 9.44377
      vertex 4 -44.7901 9.81185
      vertex 4 -45.6847 8.45
    endloop
  endfacet
  facet normal 1 0 2.22045e-016
    outer loop
      vertex 4 -45.6847 8.45
      vertex 4 -44.7901 10.1882
      vertex 4 -45.9483 9.04205
    endloop
  endfacet
  facet normal 1 0 2.22045e-016
    outer loop
      vertex 4 -44.7901 10.1882
      vertex 4 -44.7119 10.5562
      vertex 4 -45.9483 9.04205
    endloop
  endfacet
  facet normal 1 0 2.22045e-016
    outer loop
      vertex 4 -44.7119 10.5562
      vertex 4 -44.5588 10.9
      vertex 4 -45.9483 9.04205
    endloop
  endfacet
  facet normal 1 0 2.22045e-016
    outer loop
      vertex 4 -44.3377 11.2044
      vertex 4 -43 13.1
      vertex 4 -44.5588 10.9
    endloop
  endfacet
  facet normal 1 0 2.22045e-016
    outer loop
      vertex 4 -44.3377 8.79556
      vertex 4 -44.5588 9.1
      vertex 4 -44.8221 7.49205
    endloop
  endfacet
  facet normal 1 0 2.22045e-016
    outer loop
      vertex 4 -43.3742 11.7607
      vertex 4 -43 11.8
      vertex 4 -43 13.1
    endloop
  endfacet
  facet normal 0 0 1
    outer loop
      vertex 30.567 -13.3007 5
      vertex 38 -13 5
      vertex 28.8714 -13.1225 5
    endloop
  endfacet
  facet normal 0 0 1
    outer loop
      vertex 8 -23 5
      vertex 28.3 -23 5
      vertex 28.3 -21.0919 5
    endloop
  endfacet
  facet normal 0 0 1
    outer loop
      vertex 25.983 -19.6099 5
      vertex 8 -23 5
      vertex 27.25 -20.7507 5
    endloop
  endfacet
  facet normal 0 0 1
    outer loop
      vertex 27.25 -20.7507 5
      vertex 8 -23 5
      vertex 28.3 -21.0919 5
    endloop
  endfacet
  facet normal 0 0 1
    outer loop
      vertex 25.2896 -18.0524 5
      vertex 8 -23 5
      vertex 25.983 -19.6099 5
    endloop
  endfacet
  facet normal 0 0 1
    outer loop
      vertex 25.2896 -16.3476 5
      vertex 8 -23 5
      vertex 25.2896 -18.0524 5
    endloop
  endfacet
  facet normal 0 0 1
    outer loop
      vertex 25.983 -14.7901 5
      vertex 8 -23 5
      vertex 25.2896 -16.3476 5
    endloop
  endfacet
  facet normal 0 0 1
    outer loop
      vertex 27.25 -13.6493 5
      vertex 8 -23 5
      vertex 25.983 -14.7901 5
    endloop
  endfacet
  facet normal 0 0 1
    outer loop
      vertex 28.8714 -13.1225 5
      vertex 8 -13.01 5
      vertex 27.25 -13.6493 5
    endloop
  endfacet
  facet normal 0 0 1
    outer loop
      vertex 27.25 -13.6493 5
      vertex 8 -13.01 5
      vertex 8 -23 5
    endloop
  endfacet
  facet normal 0 0 1
    outer loop
      vertex 32.0434 -14.1531 5
      vertex 38 -13 5
      vertex 30.567 -13.3007 5
    endloop
  endfacet
  facet normal 0 0 1
    outer loop
      vertex 33.0455 -15.5324 5
      vertex 38 -20 5
      vertex 32.0434 -14.1531 5
    endloop
  endfacet
  facet normal 0 0 1
    outer loop
      vertex 33.4 -17.2 5
      vertex 35 -23 5
      vertex 33.0455 -15.5324 5
    endloop
  endfacet
  facet normal 0 0 1
    outer loop
      vertex 33.0455 -18.8676 5
      vertex 35 -23 5
      vertex 33.4 -17.2 5
    endloop
  endfacet
  facet normal 0 0 1
    outer loop
      vertex 32.0434 -20.2469 5
      vertex 30.3 -23 5
      vertex 33.0455 -18.8676 5
    endloop
  endfacet
  facet normal 0 0 1
    outer loop
      vertex 30.567 -21.0993 5
      vertex 30.3 -23 5
      vertex 32.0434 -20.2469 5
    endloop
  endfacet
  facet normal 0 0 1
    outer loop
      vertex 30.3 -23 5
      vertex 35 -23 5
      vertex 33.0455 -18.8676 5
    endloop
  endfacet
  facet normal 0 0 1
    outer loop
      vertex 35 -23 5
      vertex 38 -20 5
      vertex 33.0455 -15.5324 5
    endloop
  endfacet
  facet normal 0 0 1
    outer loop
      vertex 38 -20 5
      vertex 38 -13 5
      vertex 32.0434 -14.1531 5
    endloop
  endfacet
  facet normal 0 0 1
    outer loop
      vertex 30 -13.01 5
      vertex 8 -13.01 5
      vertex 28.8714 -13.1225 5
    endloop
  endfacet
  facet normal 0 0 1
    outer loop
      vertex 38 -13 5
      vertex 30 -13.01 5
      vertex 28.8714 -13.1225 5
    endloop
  endfacet
  facet normal 0 0 1
    outer loop
      vertex 38 -13 5
      vertex 33 -8 5
      vertex 30 -13.01 5
    endloop
  endfacet
  facet normal 0 0 1
    outer loop
      vertex 30.3 -21.1274 5
      vertex 30.3 -23 5
      vertex 30.567 -21.0993 5
    endloop
  endfacet
  facet normal 0 0 1
    outer loop
      vertex 30 -8 5
      vertex 30 -13.01 5
      vertex 33 -8 5
    endloop
  endfacet
  facet normal 1 0 0
    outer loop
      vertex 30 -13.01 5
      vertex 30 -8 5
      vertex 30 -8 5.5
    endloop
  endfacet
  facet normal 1 0 0
    outer loop
      vertex 30 -13.01 5.5
      vertex 30 -13.01 5
      vertex 30 -8 5.5
    endloop
  endfacet
  facet normal 0.707107 0 0.707107
    outer loop
      vertex 23.5 -13.01 12
      vertex 30 -13.01 5.5
      vertex 30 -8 5.5
    endloop
  endfacet
  facet normal 0.707107 0 0.707107
    outer loop
      vertex 23.5 -8 12
      vertex 23.5 -13.01 12
      vertex 30 -8 5.5
    endloop
  endfacet
  facet normal 0 0 1
    outer loop
      vertex 8 -13.01 12
      vertex 23.5 -13.01 12
      vertex 23.5 -8 12
    endloop
  endfacet
  facet normal 0 0 1
    outer loop
      vertex 8 -8 12
      vertex 8 -13.01 12
      vertex 23.5 -8 12
    endloop
  endfacet
  facet normal 0 -1 0
    outer loop
      vertex 8 -13.01 5
      vertex 30 -13.01 5
      vertex 30 -13.01 5.5
    endloop
  endfacet
  facet normal 0 -1 0
    outer loop
      vertex 8 -13.01 12
      vertex 8 -13.01 5
      vertex 23.5 -13.01 12
    endloop
  endfacet
  facet normal 0 -1 0
    outer loop
      vertex 23.5 -13.01 12
      vertex 8 -13.01 5
      vertex 30 -13.01 5.5
    endloop
  endfacet
  facet normal 0 -1 0
    outer loop
      vertex 4 -19.9 10
      vertex 8 -19.9 10
      vertex 8 -19.9 12
    endloop
  endfacet
  facet normal 0 -1 0
    outer loop
      vertex 4 -19.9 16
      vertex 4 -19.9 10
      vertex 8 -19.9 12
    endloop
  endfacet
  facet normal 1 0 0
    outer loop
      vertex 4 -25.9483 10.958
      vertex 4 -26.1 16
      vertex 4 -26.083 10.324
    endloop
  endfacet
  facet normal 1 0 0
    outer loop
      vertex 4 -26.1 10
      vertex 4 -26.083 10
      vertex 4 -26.083 10.324
    endloop
  endfacet
  facet normal 1 0 0
    outer loop
      vertex 4 -25.6847 11.55
      vertex 4 -26.1 16
      vertex 4 -25.9483 10.958
    endloop
  endfacet
  facet normal 1 0 0
    outer loop
      vertex 4 -26.1 16
      vertex 4 -26.1 10
      vertex 4 -26.083 10.324
    endloop
  endfacet
  facet normal 1 0 0
    outer loop
      vertex 4 -25.3037 12.0743
      vertex 4 -26.1 16
      vertex 4 -25.6847 11.55
    endloop
  endfacet
  facet normal 1 0 0
    outer loop
      vertex 4 -24.8221 12.508
      vertex 4 -26.1 16
      vertex 4 -25.3037 12.0743
    endloop
  endfacet
  facet normal 1 0 0
    outer loop
      vertex 4 -24.2609 12.832
      vertex 4 -19.9 16
      vertex 4 -24.8221 12.508
    endloop
  endfacet
  facet normal 1 0 0
    outer loop
      vertex 4 -23.6445 13.0323
      vertex 4 -19.9 16
      vertex 4 -24.2609 12.832
    endloop
  endfacet
  facet normal 1 0 0
    outer loop
      vertex 4 -23 13.1
      vertex 4 -19.9 16
      vertex 4 -23.6445 13.0323
    endloop
  endfacet
  facet normal 1 0 0
    outer loop
      vertex 4 -22.3555 13.0323
      vertex 4 -19.9 16
      vertex 4 -23 13.1
    endloop
  endfacet
  facet normal 1 0 0
    outer loop
      vertex 4 -21.7391 12.832
      vertex 4 -19.9 16
      vertex 4 -22.3555 13.0323
    endloop
  endfacet
  facet normal 1 0 0
    outer loop
      vertex 4 -21.1779 12.508
      vertex 4 -19.9 16
      vertex 4 -21.7391 12.832
    endloop
  endfacet
  facet normal 1 0 0
    outer loop
      vertex 4 -20.6963 12.0743
      vertex 4 -19.9 16
      vertex 4 -21.1779 12.508
    endloop
  endfacet
  facet normal 1 0 0
    outer loop
      vertex 4 -20.3153 11.55
      vertex 4 -19.9 16
      vertex 4 -20.6963 12.0743
    endloop
  endfacet
  facet normal 1 0 0
    outer loop
      vertex 4 -20.0517 10.958
      vertex 4 -19.9 16
      vertex 4 -20.3153 11.55
    endloop
  endfacet
  facet normal 1 0 0
    outer loop
      vertex 4 -19.917 10.324
      vertex 4 -19.9 16
      vertex 4 -20.0517 10.958
    endloop
  endfacet
  facet normal 1 0 0
    outer loop
      vertex 4 -19.917 10
      vertex 4 -19.9 10
      vertex 4 -19.917 10.324
    endloop
  endfacet
  facet normal 1 0 0
    outer loop
      vertex 4 -19.9 10
      vertex 4 -19.9 16
      vertex 4 -19.917 10.324
    endloop
  endfacet
  facet normal 1 0 0
    outer loop
      vertex 4 -19.9 16
      vertex 4 -26.1 16
      vertex 4 -24.8221 12.508
    endloop
  endfacet
  facet normal 0 1 0
    outer loop
      vertex 4 -26.1 16
      vertex 8 -26.1 12
      vertex 4 -26.1 10
    endloop
  endfacet
  facet normal 0 1 0
    outer loop
      vertex 4 -26.1 10
      vertex 8 -26.1 12
      vertex 8 -26.1 10
    endloop
  endfacet
  facet normal 0 -1 0
    outer loop
      vertex 4 -39.9 10
      vertex 8 -39.9 10
      vertex 8 -39.9 12
    endloop
  endfacet
  facet normal 0 -1 0
    outer loop
      vertex 4 -39.9 16
      vertex 4 -39.9 10
      vertex 8 -39.9 12
    endloop
  endfacet
  facet normal 1 0 0
    outer loop
      vertex 4 -45.9483 10.958
      vertex 4 -46.1 16
      vertex 4 -46.083 10.324
    endloop
  endfacet
  facet normal 1 0 0
    outer loop
      vertex 4 -46.1 10
      vertex 4 -46.083 10
      vertex 4 -46.083 10.324
    endloop
  endfacet
  facet normal 1 0 0
    outer loop
      vertex 4 -45.6847 11.55
      vertex 4 -46.1 16
      vertex 4 -45.9483 10.958
    endloop
  endfacet
  facet normal 1 0 0
    outer loop
      vertex 4 -46.1 16
      vertex 4 -46.1 10
      vertex 4 -46.083 10.324
    endloop
  endfacet
  facet normal 1 0 0
    outer loop
      vertex 4 -45.3037 12.0743
      vertex 4 -46.1 16
      vertex 4 -45.6847 11.55
    endloop
  endfacet
  facet normal 1 0 0
    outer loop
      vertex 4 -44.8221 12.508
      vertex 4 -46.1 16
      vertex 4 -45.3037 12.0743
    endloop
  endfacet
  facet normal 1 0 0
    outer loop
      vertex 4 -44.2609 12.832
      vertex 4 -39.9 16
      vertex 4 -44.8221 12.508
    endloop
  endfacet
  facet normal 1 0 0
    outer loop
      vertex 4 -43.6445 13.0323
      vertex 4 -39.9 16
      vertex 4 -44.2609 12.832
    endloop
  endfacet
  facet normal 1 0 0
    outer loop
      vertex 4 -43 13.1
      vertex 4 -39.9 16
      vertex 4 -43.6445 13.0323
    endloop
  endfacet
  facet normal 1 0 0
    outer loop
      vertex 4 -42.3555 13.0323
      vertex 4 -39.9 16
      vertex 4 -43 13.1
    endloop
  endfacet
  facet normal 1 0 0
    outer loop
      vertex 4 -41.7391 12.832
      vertex 4 -39.9 16
      vertex 4 -42.3555 13.0323
    endloop
  endfacet
  facet normal 1 0 0
    outer loop
      vertex 4 -41.1779 12.508
      vertex 4 -39.9 16
      vertex 4 -41.7391 12.832
    endloop
  endfacet
  facet normal 1 0 0
    outer loop
      vertex 4 -40.6963 12.0743
      vertex 4 -39.9 16
      vertex 4 -41.1779 12.508
    endloop
  endfacet
  facet normal 1 0 0
    outer loop
      vertex 4 -40.3153 11.55
      vertex 4 -39.9 16
      vertex 4 -40.6963 12.0743
    endloop
  endfacet
  facet normal 1 0 0
    outer loop
      vertex 4 -40.0517 10.958
      vertex 4 -39.9 16
      vertex 4 -40.3153 11.55
    endloop
  endfacet
  facet normal 1 0 0
    outer loop
      vertex 4 -39.917 10.324
      vertex 4 -39.9 16
      vertex 4 -40.0517 10.958
    endloop
  endfacet
  facet normal 1 0 0
    outer loop
      vertex 4 -39.917 10
      vertex 4 -39.9 10
      vertex 4 -39.917 10.324
    endloop
  endfacet
  facet normal 1 0 0
    outer loop
      vertex 4 -39.9 10
      vertex 4 -39.9 16
      vertex 4 -39.917 10.324
    endloop
  endfacet
  facet normal 1 0 0
    outer loop
      vertex 4 -39.9 16
      vertex 4 -46.1 16
      vertex 4 -44.8221 12.508
    endloop
  endfacet
  facet normal 0 1 0
    outer loop
      vertex 4 -46.1 16
      vertex 7.9 -46.1 12.1
      vertex 4 -46.1 10
    endloop
  endfacet
  facet normal 0 1 0
    outer loop
      vertex 4 -46.1 10
      vertex 7.9 -46.1 12.1
      vertex 7.9 -46.1 10
    endloop
  endfacet
  facet normal 0 0 1
    outer loop
      vertex 4 -46.1 10
      vertex 7.9 -46.1 10
      vertex 7.91698 -46.083 10
    endloop
  endfacet
  facet normal 0 0 1
    outer loop
      vertex 4 -46.083 10
      vertex 4 -46.1 10
      vertex 7.91698 -46.083 10
    endloop
  endfacet
  facet normal 0 1 0
    outer loop
      vertex 7.91698 -46.083 10
      vertex 7.91698 -46.083 9.67596
      vertex 4 -46.083 10
    endloop
  endfacet
  facet normal 0 1 0
    outer loop
      vertex 4 -46.083 10
      vertex 7.91698 -46.083 9.67596
      vertex 4 -46.083 9.67596
    endloop
  endfacet
  facet normal -4.61657e-017 0.978148 0.207912
    outer loop
      vertex 7.91698 -46.083 9.67596
      vertex 8 -46 9.28539
      vertex 4 -46.083 9.67596
    endloop
  endfacet
  facet normal -4.61657e-017 0.978148 0.207912
    outer loop
      vertex 4 -46.083 9.67596
      vertex 8 -46 9.28539
      vertex 8 -45.9483 9.04205
    endloop
  endfacet
  facet normal -4.61657e-017 0.978148 0.207912
    outer loop
      vertex 4 -46.083 9.67596
      vertex 8 -45.9483 9.04205
      vertex 4 -45.9483 9.04205
    endloop
  endfacet
  facet normal -9.03136e-017 0.913546 0.406736
    outer loop
      vertex 8 -45.9483 9.04205
      vertex 8 -45.6847 8.45
      vertex 4 -45.9483 9.04205
    endloop
  endfacet
  facet normal -9.03136e-017 0.913546 0.406736
    outer loop
      vertex 4 -45.9483 9.04205
      vertex 8 -45.6847 8.45
      vertex 4 -45.6847 8.45
    endloop
  endfacet
  facet normal -1.30515e-016 0.809017 0.587785
    outer loop
      vertex 8 -45.6847 8.45
      vertex 8 -45.3037 7.9257
      vertex 4 -45.6847 8.45
    endloop
  endfacet
  facet normal -1.30515e-016 0.809017 0.587785
    outer loop
      vertex 4 -45.6847 8.45
      vertex 8 -45.3037 7.9257
      vertex 4 -45.3037 7.9257
    endloop
  endfacet
  facet normal -1.65011e-016 0.669131 0.743145
    outer loop
      vertex 4 -45.3037 7.9257
      vertex 8 -45.3037 7.9257
      vertex 8 -44.8221 7.49205
    endloop
  endfacet
  facet normal -1.65011e-016 0.669131 0.743145
    outer loop
      vertex 4 -44.8221 7.49205
      vertex 4 -45.3037 7.9257
      vertex 8 -44.8221 7.49205
    endloop
  endfacet
  facet normal -1.92296e-016 0.5 0.866025
    outer loop
      vertex 4 -44.8221 7.49205
      vertex 8 -44.8221 7.49205
      vertex 8 -44.2609 7.16801
    endloop
  endfacet
  facet normal -1.92296e-016 0.5 0.866025
    outer loop
      vertex 4 -44.2609 7.16801
      vertex 4 -44.8221 7.49205
      vertex 8 -44.2609 7.16801
    endloop
  endfacet
  facet normal -2.11177e-016 0.309017 0.951056
    outer loop
      vertex 4 -44.2609 7.16801
      vertex 8 -44.2609 7.16801
      vertex 8 -43.6445 6.96774
    endloop
  endfacet
  facet normal -2.11177e-016 0.309017 0.951056
    outer loop
      vertex 4 -43.6445 6.96774
      vertex 4 -44.2609 7.16801
      vertex 8 -43.6445 6.96774
    endloop
  endfacet
  facet normal -2.20828e-016 0.104528 0.994522
    outer loop
      vertex 4 -43.6445 6.96774
      vertex 8 -43.6445 6.96774
      vertex 8 -43 6.9
    endloop
  endfacet
  facet normal -2.20828e-016 0.104528 0.994522
    outer loop
      vertex 4 -43 6.9
      vertex 4 -43.6445 6.96774
      vertex 8 -43 6.9
    endloop
  endfacet
  facet normal -2.20828e-016 -0.104528 0.994522
    outer loop
      vertex 4 -42.3555 6.96774
      vertex 4 -43 6.9
      vertex 8 -43 6.9
    endloop
  endfacet
  facet normal -2.20828e-016 -0.104528 0.994522
    outer loop
      vertex 8 -42.3555 6.96774
      vertex 4 -42.3555 6.96774
      vertex 8 -43 6.9
    endloop
  endfacet
  facet normal -2.11177e-016 -0.309017 0.951056
    outer loop
      vertex 4 -41.7391 7.16801
      vertex 4 -42.3555 6.96774
      vertex 8 -42.3555 6.96774
    endloop
  endfacet
  facet normal -2.11177e-016 -0.309017 0.951056
    outer loop
      vertex 8 -41.7391 7.16801
      vertex 4 -41.7391 7.16801
      vertex 8 -42.3555 6.96774
    endloop
  endfacet
  facet normal -1.92296e-016 -0.5 0.866025
    outer loop
      vertex 4 -41.1779 7.49205
      vertex 4 -41.7391 7.16801
      vertex 8 -41.7391 7.16801
    endloop
  endfacet
  facet normal -1.92296e-016 -0.5 0.866025
    outer loop
      vertex 8 -41.1779 7.49205
      vertex 4 -41.1779 7.49205
      vertex 8 -41.7391 7.16801
    endloop
  endfacet
  facet normal -1.65011e-016 -0.669131 0.743145
    outer loop
      vertex 4 -40.6963 7.9257
      vertex 4 -41.1779 7.49205
      vertex 8 -41.1779 7.49205
    endloop
  endfacet
  facet normal -1.65011e-016 -0.669131 0.743145
    outer loop
      vertex 8 -40.6963 7.9257
      vertex 4 -40.6963 7.9257
      vertex 8 -41.1779 7.49205
    endloop
  endfacet
  facet normal -1.30515e-016 -0.809017 0.587785
    outer loop
      vertex 4 -40.3153 8.45
      vertex 4 -40.6963 7.9257
      vertex 8 -40.6963 7.9257
    endloop
  endfacet
  facet normal -1.30515e-016 -0.809017 0.587785
    outer loop
      vertex 8 -40.3153 8.45
      vertex 4 -40.3153 8.45
      vertex 8 -40.6963 7.9257
    endloop
  endfacet
  facet normal -9.03136e-017 -0.913546 0.406736
    outer loop
      vertex 4 -40.0517 9.04205
      vertex 4 -40.3153 8.45
      vertex 8 -40.3153 8.45
    endloop
  endfacet
  facet normal -9.03136e-017 -0.913546 0.406736
    outer loop
      vertex 8 -40.0517 9.04205
      vertex 4 -40.0517 9.04205
      vertex 8 -40.3153 8.45
    endloop
  endfacet
  facet normal -4.61657e-017 -0.978148 0.207912
    outer loop
      vertex 4 -39.917 9.67596
      vertex 4 -40.0517 9.04205
      vertex 8 -40.0517 9.04205
    endloop
  endfacet
  facet normal -4.61657e-017 -0.978148 0.207912
    outer loop
      vertex 8 -39.917 9.67596
      vertex 4 -39.917 9.67596
      vertex 8 -40.0517 9.04205
    endloop
  endfacet
  facet normal 0 -1 0
    outer loop
      vertex 4 -39.917 10
      vertex 4 -39.917 9.67596
      vertex 8 -39.917 9.67596
    endloop
  endfacet
  facet normal 0 -1 0
    outer loop
      vertex 8 -39.917 10
      vertex 4 -39.917 10
      vertex 8 -39.917 9.67596
    endloop
  endfacet
  facet normal 0 0 1
    outer loop
      vertex 4 -39.917 10
      vertex 8 -39.917 10
      vertex 8 -39.9 10
    endloop
  endfacet
  facet normal 0 0 1
    outer loop
      vertex 4 -39.9 10
      vertex 4 -39.917 10
      vertex 8 -39.9 10
    endloop
  endfacet
  facet normal 0 0 1
    outer loop
      vertex 4 -26.1 10
      vertex 8 -26.1 10
      vertex 8 -26.083 10
    endloop
  endfacet
  facet normal 0 0 1
    outer loop
      vertex 4 -26.083 10
      vertex 4 -26.1 10
      vertex 8 -26.083 10
    endloop
  endfacet
  facet normal 0 1 0
    outer loop
      vertex 8 -26.083 10
      vertex 8 -26.083 9.67596
      vertex 4 -26.083 10
    endloop
  endfacet
  facet normal 0 1 0
    outer loop
      vertex 4 -26.083 10
      vertex 8 -26.083 9.67596
      vertex 4 -26.083 9.67596
    endloop
  endfacet
  facet normal -4.61657e-017 0.978148 0.207912
    outer loop
      vertex 8 -26.083 9.67596
      vertex 8 -25.9483 9.04205
      vertex 4 -26.083 9.67596
    endloop
  endfacet
  facet normal -4.61657e-017 0.978148 0.207912
    outer loop
      vertex 4 -26.083 9.67596
      vertex 8 -25.9483 9.04205
      vertex 4 -25.9483 9.04205
    endloop
  endfacet
  facet normal -9.03136e-017 0.913546 0.406736
    outer loop
      vertex 8 -25.9483 9.04205
      vertex 8 -25.6847 8.45
      vertex 4 -25.9483 9.04205
    endloop
  endfacet
  facet normal -9.03136e-017 0.913546 0.406736
    outer loop
      vertex 4 -25.9483 9.04205
      vertex 8 -25.6847 8.45
      vertex 4 -25.6847 8.45
    endloop
  endfacet
  facet normal -1.30515e-016 0.809017 0.587785
    outer loop
      vertex 8 -25.6847 8.45
      vertex 8 -25.3037 7.9257
      vertex 4 -25.6847 8.45
    endloop
  endfacet
  facet normal -1.30515e-016 0.809017 0.587785
    outer loop
      vertex 4 -25.6847 8.45
      vertex 8 -25.3037 7.9257
      vertex 4 -25.3037 7.9257
    endloop
  endfacet
  facet normal -1.65011e-016 0.669131 0.743145
    outer loop
      vertex 4 -25.3037 7.9257
      vertex 8 -25.3037 7.9257
      vertex 8 -24.8221 7.49205
    endloop
  endfacet
  facet normal -1.65011e-016 0.669131 0.743145
    outer loop
      vertex 4 -24.8221 7.49205
      vertex 4 -25.3037 7.9257
      vertex 8 -24.8221 7.49205
    endloop
  endfacet
  facet normal -1.92296e-016 0.5 0.866025
    outer loop
      vertex 4 -24.8221 7.49205
      vertex 8 -24.8221 7.49205
      vertex 8 -24.2609 7.16801
    endloop
  endfacet
  facet normal -1.92296e-016 0.5 0.866025
    outer loop
      vertex 4 -24.2609 7.16801
      vertex 4 -24.8221 7.49205
      vertex 8 -24.2609 7.16801
    endloop
  endfacet
  facet normal -2.11177e-016 0.309017 0.951056
    outer loop
      vertex 4 -24.2609 7.16801
      vertex 8 -24.2609 7.16801
      vertex 8 -23.6445 6.96774
    endloop
  endfacet
  facet normal -2.11177e-016 0.309017 0.951056
    outer loop
      vertex 4 -23.6445 6.96774
      vertex 4 -24.2609 7.16801
      vertex 8 -23.6445 6.96774
    endloop
  endfacet
  facet normal -2.20828e-016 0.104528 0.994522
    outer loop
      vertex 4 -23.6445 6.96774
      vertex 8 -23.6445 6.96774
      vertex 8 -23 6.9
    endloop
  endfacet
  facet normal -2.20828e-016 0.104528 0.994522
    outer loop
      vertex 4 -23 6.9
      vertex 4 -23.6445 6.96774
      vertex 8 -23 6.9
    endloop
  endfacet
  facet normal -2.20828e-016 -0.104528 0.994522
    outer loop
      vertex 4 -22.3555 6.96774
      vertex 4 -23 6.9
      vertex 8 -23 6.9
    endloop
  endfacet
  facet normal -2.20828e-016 -0.104528 0.994522
    outer loop
      vertex 8 -22.3555 6.96774
      vertex 4 -22.3555 6.96774
      vertex 8 -23 6.9
    endloop
  endfacet
  facet normal -2.11177e-016 -0.309017 0.951056
    outer loop
      vertex 4 -21.7391 7.16801
      vertex 4 -22.3555 6.96774
      vertex 8 -22.3555 6.96774
    endloop
  endfacet
  facet normal -2.11177e-016 -0.309017 0.951056
    outer loop
      vertex 8 -21.7391 7.16801
      vertex 4 -21.7391 7.16801
      vertex 8 -22.3555 6.96774
    endloop
  endfacet
  facet normal -1.92296e-016 -0.5 0.866025
    outer loop
      vertex 4 -21.1779 7.49205
      vertex 4 -21.7391 7.16801
      vertex 8 -21.7391 7.16801
    endloop
  endfacet
  facet normal -1.92296e-016 -0.5 0.866025
    outer loop
      vertex 8 -21.1779 7.49205
      vertex 4 -21.1779 7.49205
      vertex 8 -21.7391 7.16801
    endloop
  endfacet
  facet normal -1.65011e-016 -0.669131 0.743145
    outer loop
      vertex 4 -20.6963 7.9257
      vertex 4 -21.1779 7.49205
      vertex 8 -21.1779 7.49205
    endloop
  endfacet
  facet normal -1.65011e-016 -0.669131 0.743145
    outer loop
      vertex 8 -20.6963 7.9257
      vertex 4 -20.6963 7.9257
      vertex 8 -21.1779 7.49205
    endloop
  endfacet
  facet normal -1.30515e-016 -0.809017 0.587785
    outer loop
      vertex 4 -20.3153 8.45
      vertex 4 -20.6963 7.9257
      vertex 8 -20.6963 7.9257
    endloop
  endfacet
  facet normal -1.30515e-016 -0.809017 0.587785
    outer loop
      vertex 8 -20.3153 8.45
      vertex 4 -20.3153 8.45
      vertex 8 -20.6963 7.9257
    endloop
  endfacet
  facet normal -9.03136e-017 -0.913546 0.406736
    outer loop
      vertex 4 -20.0517 9.04205
      vertex 4 -20.3153 8.45
      vertex 8 -20.3153 8.45
    endloop
  endfacet
  facet normal -9.03136e-017 -0.913546 0.406736
    outer loop
      vertex 8 -20.0517 9.04205
      vertex 4 -20.0517 9.04205
      vertex 8 -20.3153 8.45
    endloop
  endfacet
  facet normal -4.61657e-017 -0.978148 0.207912
    outer loop
      vertex 4 -19.917 9.67596
      vertex 4 -20.0517 9.04205
      vertex 8 -20.0517 9.04205
    endloop
  endfacet
  facet normal -4.61657e-017 -0.978148 0.207912
    outer loop
      vertex 8 -19.917 9.67596
      vertex 4 -19.917 9.67596
      vertex 8 -20.0517 9.04205
    endloop
  endfacet
  facet normal 0 -1 0
    outer loop
      vertex 4 -19.917 10
      vertex 4 -19.917 9.67596
      vertex 8 -19.917 9.67596
    endloop
  endfacet
  facet normal 0 -1 0
    outer loop
      vertex 8 -19.917 10
      vertex 4 -19.917 10
      vertex 8 -19.917 9.67596
    endloop
  endfacet
  facet normal 0 0 1
    outer loop
      vertex 4 -19.917 10
      vertex 8 -19.917 10
      vertex 8 -19.9 10
    endloop
  endfacet
  facet normal 0 0 1
    outer loop
      vertex 4 -19.9 10
      vertex 4 -19.917 10
      vertex 8 -19.9 10
    endloop
  endfacet
  facet normal 1 0 0
    outer loop
      vertex 28.3 -23 0.6
      vertex 28.3 -21.0919 0.6
      vertex 28.3 -21.0919 5
    endloop
  endfacet
  facet normal 1 0 0
    outer loop
      vertex 28.3 -23 5
      vertex 28.3 -23 0.6
      vertex 28.3 -21.0919 5
    endloop
  endfacet
  facet normal 0 0 1
    outer loop
      vertex 28.3 -23 0.6
      vertex 30.3 -23 0.6
      vertex 30.3 -21.1274 0.6
    endloop
  endfacet
  facet normal 0 0 1
    outer loop
      vertex 28.3 -21.0919 0.6
      vertex 28.3 -23 0.6
      vertex 28.8714 -21.2775 0.6
    endloop
  endfacet
  facet normal 0 0 1
    outer loop
      vertex 28.8714 -21.2775 0.6
      vertex 28.3 -23 0.6
      vertex 30.3 -21.1274 0.6
    endloop
  endfacet
  facet normal -1 0 0
    outer loop
      vertex 30.3 -23 5
      vertex 30.3 -21.1274 5
      vertex 30.3 -23 0.6
    endloop
  endfacet
  facet normal -1 0 0
    outer loop
      vertex 30.3 -23 0.6
      vertex 30.3 -21.1274 5
      vertex 30.3 -21.1274 0.6
    endloop
  endfacet
endsolid OpenSCAD_Model
